<svg version="1.1" xmlns="http://www.w3.org/2000/svg" style="display: block;" viewBox="0 0 2048 2048" width="1024" height="1024" preserveAspectRatio="none">
<defs>
	<linearGradient id="Gradient1" gradientUnits="userSpaceOnUse" x1="1074.37" y1="1263.08" x2="1093.92" y2="1342.27">
		<stop class="stop0" offset="0" stop-opacity="1" stop-color="rgb(19,13,34)"/>
		<stop class="stop1" offset="1" stop-opacity="1" stop-color="rgb(27,31,70)"/>
	</linearGradient>
	<linearGradient id="Gradient2" gradientUnits="userSpaceOnUse" x1="388.351" y1="1048.87" x2="423.834" y2="1061.15">
		<stop class="stop0" offset="0" stop-opacity="1" stop-color="rgb(7,7,30)"/>
		<stop class="stop1" offset="1" stop-opacity="1" stop-color="rgb(0,12,60)"/>
	</linearGradient>
	<linearGradient id="Gradient3" gradientUnits="userSpaceOnUse" x1="992.162" y1="962.271" x2="992.547" y2="938.578">
		<stop class="stop0" offset="0" stop-opacity="1" stop-color="rgb(216,223,234)"/>
		<stop class="stop1" offset="1" stop-opacity="1" stop-color="rgb(255,255,255)"/>
	</linearGradient>
</defs>
<path transform="translate(0,0)" fill="rgb(247,248,250)" d="M 748.071 395.166 L 787.497 395.385 L 1232.6 395.136 C 1231.54 403.317 1231.89 413.299 1231.94 421.686 L 1232 506.178 C 1232.01 516.478 1231.48 540.993 1232.44 550.178 C 1228.28 563.831 1227.4 573.577 1231.34 587.82 C 1232.08 590.465 1234.32 595.343 1234.71 596.863 L 1233.5 597.993 L 1233.28 608.124 C 1224.4 618.915 1215.35 630.191 1206.22 640.715 C 1196.18 653.502 1186.31 666.417 1176.59 679.456 L 1174.29 682.242 L 1164.86 673.825 C 1161.49 671.326 1154.69 664.808 1151.31 661.743 L 1138.18 650.383 L 1126.34 639.77 C 1118.45 632.368 1109.08 622.975 1099.78 617.814 L 1073.71 637.98 L 1071.29 639.083 C 1069.61 643.653 1069.66 644.618 1071.89 649.092 C 1074.15 653.147 1076.51 657.196 1078.46 661.397 L 1084.15 672.659 L 1090.7 684.95 C 1093.25 689.421 1095.38 693.209 1097.61 697.889 C 1099.7 701.557 1101.9 705.236 1103.73 709.035 C 1105.82 712.687 1108.47 717.012 1110.37 720.676 C 1118.82 734.292 1126.65 746.57 1136.81 759.075 L 1146.09 769.704 C 1152.09 774.637 1156.59 778.262 1163.8 781.531 C 1167.55 782.545 1171.5 783.737 1175.28 784.443 C 1189.54 781.754 1194.81 777.32 1206.22 768.786 C 1207.12 791.775 1205.88 815.005 1206.76 837.759 C 1177.29 846.533 1130.43 862.222 1106.42 880.642 C 1102.66 884.461 1100.23 886.996 1096.82 891.266 C 1094.22 895.92 1092.27 899.089 1090.43 904.143 C 1089.14 908.358 1087.88 912.581 1086.64 916.81 L 1084.36 928.887 C 1084.08 930.595 1082.92 938.639 1082.54 939.792 C 1081.92 944.658 1081.18 952.402 1080.29 956.995 L 1072.18 1031.96 C 1071.62 1037.57 1070.44 1058.6 1069.48 1062.52 C 1067.24 1075.4 1066.25 1091.25 1064.91 1104.59 L 1058.11 1171.73 C 1056.96 1181.19 1051.38 1232.16 1052.79 1238.26 L 1055.07 1239.17 C 1066.24 1238.87 1099.52 1239.79 1110.4 1241.2 C 1108.6 1246.83 1108.65 1248.71 1108.97 1254.66 C 1110.96 1264.35 1112.78 1274.5 1113.26 1284.4 C 1121.23 1279.02 1133.78 1271.47 1132.93 1260.82 C 1148.71 1259.74 1170.83 1260.22 1187.08 1260.08 C 1187.2 1265.28 1187.25 1269.93 1187.76 1275.13 C 1189.48 1285.73 1194.71 1309.52 1188.5 1318.58 C 1185.71 1322.63 1180.86 1323.43 1176.27 1324.46 L 1181.37 1326.86 L 1258.07 1326.97 C 1272.49 1327.03 1288.47 1327.45 1302.76 1327.08 L 1359.2 1326.97 C 1370.82 1327.09 1392.09 1327.97 1402.95 1327.18 L 1557.71 1327.24 C 1578.31 1327.25 1615.65 1328.44 1634.83 1327 L 1635.04 1350.94 C 1623.48 1350.53 1612.67 1350.78 1601.12 1351.01 L 1601.29 1421.56 C 1601.78 1447 1602.68 1478.12 1601.6 1503.33 L 1601.08 1507.8 C 1612.22 1507.95 1623.37 1507.97 1634.52 1507.86 C 1634.68 1515.86 1635.1 1524.78 1634.34 1532.67 C 1651.68 1532.1 1669.16 1532.71 1686.54 1532.63 L 1685.88 1550.89 C 1676.41 1551.13 1666.93 1551.23 1657.46 1551.17 C 1658.75 1571.25 1658.04 1600.92 1658.03 1621.46 C 1667.58 1620.92 1676.67 1621.35 1686.01 1620.97 C 1685.82 1627.29 1685.77 1634.34 1685.41 1640.59 L 1706.93 1639.95 L 1707.14 1656.93 C 1702.64 1656.67 1684.97 1655.81 1681.81 1657.03 C 1682.01 1675.07 1682.35 1695.13 1681.87 1713.17 C 1687.63 1713.93 1699.6 1713.62 1705.88 1713.56 L 1705.89 1729.28 C 1696.08 1729.11 1686.27 1729.1 1676.47 1729.26 C 1657.07 1730.78 1623.01 1729.8 1602.8 1729.82 L 1459.66 1729.86 L 1273.99 1729.88 C 1245.28 1729.88 1207.67 1731 1179.49 1729.76 C 1148.85 1730.8 1111.33 1729.9 1080.29 1729.89 L 881.833 1729.68 L 799.757 1729.97 C 772.594 1730.1 747.614 1736.39 731.271 1710.51 C 727.559 1711.06 723.943 1711.04 721.473 1713.65 C 721.193 1715.38 720.961 1716.62 720.833 1718.37 L 721.037 1719.35 C 721.853 1723.37 722.697 1726.03 720.51 1729.33 C 712.082 1731.56 690.646 1729.68 680.869 1729.89 C 649.48 1730.57 615.119 1728.61 583.93 1730.09 C 583.391 1714.52 584.829 1701.61 587.687 1686.4 C 589.485 1681.91 589.406 1681.03 587.516 1676.94 L 583.996 1676.02 C 581.36 1672.97 582.108 1672.97 581.24 1668.32 C 556.215 1651.01 520.943 1627.18 494.514 1614.06 C 493.293 1623.01 489.127 1671.57 486.099 1675.58 C 483.541 1676.09 483.374 1676.22 480.811 1676.04 C 464.33 1675.65 446.245 1676.06 429.634 1676.08 L 416.845 1675.3 C 418.228 1656.6 416.341 1629.96 415.986 1610.41 C 415.733 1596.54 415.351 1563.77 413.531 1551.01 C 364.329 1510.34 340.377 1440.44 345.636 1378.48 C 348.928 1339.71 375.131 1262.23 403.877 1236.94 C 404.173 1232.14 403.859 1230.81 403.111 1225.96 C 401.314 1223.45 378.362 1217.14 373.109 1215.54 C 371.569 1203.61 374.366 1179.8 375.914 1167.27 C 378.382 1147.31 379.992 1128.01 381.967 1108 C 383.45 1092.97 386.54 1079.47 386.948 1063.72 L 387.593 1045.81 C 386.84 1043.93 386.58 1042.78 384.103 1042.34 C 365.539 1038.59 335.043 1035.44 320.092 1022.8 C 293.622 1000.44 310.328 961.167 319.971 937.092 C 337.473 893.395 356.337 855.638 377.012 813.984 C 391.991 783.806 408.989 778.109 439.532 768.037 C 447.343 766.737 454.909 764.608 462.565 762.595 C 468.913 760.93 474.035 759.359 480.265 757.278 C 483.309 754.138 489.446 749.166 493.277 747.121 C 493.687 739.033 493.929 730.937 494.004 722.838 C 480.841 715.34 471.217 696.162 465.213 682.912 C 459.961 668.002 454.258 655.523 454.805 639.393 C 455.326 624.017 464.922 619.373 466.024 615.696 C 469.07 605.538 466.322 596.587 480.269 585.77 C 501.936 568.965 528.319 574.134 553.331 571.637 C 561.794 570.791 572.101 562.168 582.401 563.07 C 591.282 558.525 601.698 550.644 612.102 545.547 C 643.235 530.297 677.519 517.773 712.183 514.203 C 721.13 513.282 737.862 513.792 747.16 513.825 C 748.925 511 748.076 406.585 748.071 395.166 z"/>
<path transform="translate(0,0)" fill="rgb(45,106,167)" d="M 748.071 395.166 L 787.497 395.385 L 1232.6 395.136 C 1231.54 403.317 1231.89 413.299 1231.94 421.686 L 1232 506.178 C 1232.01 516.478 1231.48 540.993 1232.44 550.178 C 1228.28 563.831 1227.4 573.577 1231.34 587.82 C 1232.08 590.465 1234.32 595.343 1234.71 596.863 L 1233.5 597.993 L 1233.28 608.124 C 1224.4 618.915 1215.35 630.191 1206.22 640.715 C 1196.18 653.502 1186.31 666.417 1176.59 679.456 L 1174.29 682.242 L 1164.86 673.825 C 1161.49 671.326 1154.69 664.808 1151.31 661.743 L 1138.18 650.383 L 1126.34 639.77 C 1118.45 632.368 1109.08 622.975 1099.78 617.814 L 1073.71 637.98 L 1071.29 639.083 C 1069.61 643.653 1069.66 644.618 1071.89 649.092 C 1074.15 653.147 1076.51 657.196 1078.46 661.397 L 1084.15 672.659 L 1090.7 684.95 C 1093.25 689.421 1095.38 693.209 1097.61 697.889 C 1099.7 701.557 1101.9 705.236 1103.73 709.035 C 1105.82 712.687 1108.47 717.012 1110.37 720.676 C 1118.82 734.292 1126.65 746.57 1136.81 759.075 L 1146.09 769.704 C 1152.09 774.637 1156.59 778.262 1163.8 781.531 C 1167.55 782.545 1171.5 783.737 1175.28 784.443 C 1189.54 781.754 1194.81 777.32 1206.22 768.786 C 1207.12 791.775 1205.88 815.005 1206.76 837.759 C 1177.29 846.533 1130.43 862.222 1106.42 880.642 C 1102.66 884.461 1100.23 886.996 1096.82 891.266 C 1094.22 895.92 1092.27 899.089 1090.43 904.143 C 1089.14 908.358 1087.88 912.581 1086.64 916.81 L 1084.36 928.887 C 1084.08 930.595 1082.92 938.639 1082.54 939.792 C 1081.92 944.658 1081.18 952.402 1080.29 956.995 L 1072.18 1031.96 C 1071.62 1037.57 1070.44 1058.6 1069.48 1062.52 C 1053.13 1062.45 1035.96 1063.26 1019.84 1062.21 L 1016.48 1062.11 C 988.795 1064.35 947.757 1062.79 918.893 1063.08 C 908.791 1104.27 882.673 1139.73 846.332 1161.59 C 810.168 1183.87 766.573 1190.71 725.326 1180.56 C 699.886 1174.23 682.493 1165.19 661.746 1149.77 C 663.677 1170.8 664.818 1191.89 665.167 1213.01 C 661.926 1214.01 657 1215.36 653.996 1216.59 C 579.286 1242.26 590.636 1217 586.63 1154.65 C 586.285 1149.29 586.807 1143.14 584.927 1138.11 C 584.452 1136.84 582.204 1136.95 580.753 1136.69 L 583.958 1135.8 C 585.777 1132.95 585.207 1131.48 585.451 1127.58 C 580.565 1126.52 578.184 1126.35 573.167 1126.05 C 570.594 1129.02 567.019 1132.96 566.103 1136.92 L 564.904 1138.45 C 561.698 1142.64 559.807 1148.55 555.934 1150.62 C 552.402 1149.96 553.237 1149.72 550.219 1146.19 C 548.368 1143.43 545.916 1139.12 543.311 1137.36 C 534.889 1137.88 526.466 1137.88 518.03 1137.97 C 510.738 1214.5 523.553 1239.27 424.012 1227.68 C 419.128 1227.12 407.16 1224.36 403.111 1225.96 C 401.314 1223.45 378.362 1217.14 373.109 1215.54 C 371.569 1203.61 374.366 1179.8 375.914 1167.27 C 378.382 1147.31 379.992 1128.01 381.967 1108 C 383.45 1092.97 386.54 1079.47 386.948 1063.72 L 387.593 1045.81 C 386.84 1043.93 386.58 1042.78 384.103 1042.34 C 365.539 1038.59 335.043 1035.44 320.092 1022.8 C 293.622 1000.44 310.328 961.167 319.971 937.092 C 337.473 893.395 356.337 855.638 377.012 813.984 C 391.991 783.806 408.989 778.109 439.532 768.037 C 447.343 766.737 454.909 764.608 462.565 762.595 C 468.913 760.93 474.035 759.359 480.265 757.278 C 483.309 754.138 489.446 749.166 493.277 747.121 C 493.687 739.033 493.929 730.937 494.004 722.838 C 480.841 715.34 471.217 696.162 465.213 682.912 C 459.961 668.002 454.258 655.523 454.805 639.393 C 455.326 624.017 464.922 619.373 466.024 615.696 C 469.07 605.538 466.322 596.587 480.269 585.77 C 501.936 568.965 528.319 574.134 553.331 571.637 C 561.794 570.791 572.101 562.168 582.401 563.07 C 591.282 558.525 601.698 550.644 612.102 545.547 C 643.235 530.297 677.519 517.773 712.183 514.203 C 721.13 513.282 737.862 513.792 747.16 513.825 C 748.925 511 748.076 406.585 748.071 395.166 z"/>
<path transform="translate(0,0)" fill="rgb(247,248,250)" d="M 775.129 448.826 C 917.477 450.476 1063.86 449.432 1206.35 448.815 L 1206.22 640.715 C 1196.18 653.502 1186.31 666.417 1176.59 679.456 L 1174.29 682.242 L 1164.86 673.825 C 1161.49 671.326 1154.69 664.808 1151.31 661.743 L 1138.18 650.383 L 1126.34 639.77 C 1118.45 632.368 1109.08 622.975 1099.78 617.814 L 1073.71 637.98 L 1071.29 639.083 C 1069.61 643.653 1069.66 644.618 1071.89 649.092 C 1074.15 653.147 1076.51 657.196 1078.46 661.397 L 1084.15 672.659 L 1090.7 684.95 C 1093.25 689.421 1095.38 693.209 1097.61 697.889 C 1099.7 701.557 1101.9 705.236 1103.73 709.035 C 1105.82 712.687 1108.47 717.012 1110.37 720.676 C 1118.82 734.292 1126.65 746.57 1136.81 759.075 L 1146.09 769.704 C 1152.09 774.637 1156.59 778.262 1163.8 781.531 C 1167.55 782.545 1171.5 783.737 1175.28 784.443 C 1189.54 781.754 1194.81 777.32 1206.22 768.786 C 1207.12 791.775 1205.88 815.005 1206.76 837.759 C 1177.29 846.533 1130.43 862.222 1106.42 880.642 C 1102.66 884.461 1100.23 886.996 1096.82 891.266 C 1094.22 895.92 1092.27 899.089 1090.43 904.143 C 1089.14 908.358 1087.88 912.581 1086.64 916.81 L 1084.36 928.887 C 1084.08 930.595 1082.92 938.639 1082.54 939.792 C 1081.92 944.658 1081.18 952.402 1080.29 956.995 C 1060.87 956.683 1034.77 955.031 1016.03 958.585 C 1013.26 959.112 1007.46 962.491 1004.79 964.085 C 999.514 961.294 924.994 963.024 913.314 963.053 C 909.252 953.519 906.198 947.556 901.214 938.494 L 895.302 928.856 L 885.292 916.164 L 873.788 904.08 C 870.262 900.687 865.012 896.628 861.131 893.441 C 858.526 892.361 855.735 889.887 853.441 888.096 C 848.795 885.411 842.595 881.936 839.026 878.013 C 836.717 878.04 820.037 870.202 815.953 868.525 C 810.665 866.931 805.368 865.364 800.063 863.826 C 791.438 861.498 783.242 860.483 774.381 859.744 L 774.723 835.016 C 782.706 835.097 793.567 837.253 798.131 830.589 C 800.262 817.356 785.75 804.51 774.053 800.42 C 774.035 703.277 772.907 603.513 774.149 506.494 C 775.602 496.603 775.087 460.489 775.129 448.826 z"/>
<path transform="translate(0,0)" fill="rgb(247,248,250)" d="M 885.292 916.164 C 886.027 915.684 887.104 914.878 887.995 914.882 C 953.416 915.183 1019.15 914.288 1084.55 915.122 C 1085.48 915.763 1086.02 915.968 1086.64 916.81 L 1084.36 928.887 C 1084.08 930.595 1082.92 938.639 1082.54 939.792 C 1081.92 944.658 1081.18 952.402 1080.29 956.995 C 1060.87 956.683 1034.77 955.031 1016.03 958.585 C 1013.26 959.112 1007.46 962.491 1004.79 964.085 C 999.514 961.294 924.994 963.024 913.314 963.053 C 909.252 953.519 906.198 947.556 901.214 938.494 L 895.302 928.856 L 885.292 916.164 z"/>
<path transform="translate(0,0)" fill="url(#Gradient3)" d="M 901.214 938.494 C 920.406 939.207 1078.33 937.492 1082.54 939.792 C 1081.92 944.658 1081.18 952.402 1080.29 956.995 C 1060.87 956.683 1034.77 955.031 1016.03 958.585 C 1013.26 959.112 1007.46 962.491 1004.79 964.085 C 999.514 961.294 924.994 963.024 913.314 963.053 C 909.252 953.519 906.198 947.556 901.214 938.494 z"/>
<path transform="translate(0,0)" fill="rgb(220,226,235)" d="M 895.302 928.856 C 957.189 928.702 1022.89 927.14 1084.36 928.887 C 1084.08 930.595 1082.92 938.639 1082.54 939.792 C 1078.33 937.492 920.406 939.207 901.214 938.494 L 895.302 928.856 z"/>
<path transform="translate(0,0)" fill="rgb(247,248,250)" d="M 861.131 893.441 C 868.313 889.458 1072.27 889.835 1096.82 891.266 C 1094.22 895.92 1092.27 899.089 1090.43 904.143 C 1089.14 908.358 1087.88 912.581 1086.64 916.81 C 1086.02 915.968 1085.48 915.763 1084.55 915.122 C 1019.15 914.288 953.416 915.183 887.995 914.882 C 887.104 914.878 886.027 915.684 885.292 916.164 L 873.788 904.08 C 870.262 900.687 865.012 896.628 861.131 893.441 z"/>
<path transform="translate(0,0)" fill="rgb(220,226,235)" d="M 873.788 904.08 C 892.435 905.063 918.07 903.992 937.664 904.015 L 1090.43 904.143 C 1089.14 908.358 1087.88 912.581 1086.64 916.81 C 1086.02 915.968 1085.48 915.763 1084.55 915.122 C 1019.15 914.288 953.416 915.183 887.995 914.882 C 887.104 914.878 886.027 915.684 885.292 916.164 L 873.788 904.08 z"/>
<path transform="translate(0,0)" fill="rgb(220,226,235)" d="M 1163.8 781.531 C 1167.55 782.545 1171.5 783.737 1175.28 784.443 L 1175.56 793.215 C 1150.05 793.705 1121.97 793.088 1096.25 793.1 L 906.35 793.028 C 874.089 793.034 841.281 792.049 809.171 794.08 C 806.179 794.269 804.448 793.592 802.21 791.655 C 800.562 787.996 800.781 788.041 801.052 783.902 C 803.37 782.12 806.631 781.973 809.676 782.025 C 838.468 782.517 867.335 782.609 896.115 782.668 L 1093.71 782.913 C 1103.12 782.935 1158.82 783.918 1163.8 781.531 z"/>
<path transform="translate(0,0)" fill="rgb(220,226,235)" d="M 1136.81 759.075 L 1146.09 769.704 C 1123.51 767.735 1077.59 769.22 1053.44 769.259 L 878.105 769.325 L 831.242 769.249 C 825.043 769.245 805.654 770.436 801.181 767.425 C 800.814 764.029 800.497 763.119 801.572 759.814 C 807.989 758.141 872.782 759.062 883.73 759.043 L 1136.81 759.075 z"/>
<path transform="translate(0,0)" fill="rgb(244,157,150)" d="M 1011.03 577.911 L 1012.4 575.414 C 1017.79 574.351 1018.33 578.574 1020.59 576.94 C 1019.31 574.283 1017.04 570.609 1017.51 567.978 C 1020.31 566.884 1022.07 567.06 1025 568.523 C 1037.88 574.962 1036.63 579.345 1051.4 580.793 C 1054.19 581.039 1059.6 581.947 1061.64 580.343 C 1094.49 586.28 1086.82 607.75 1099.78 617.814 L 1073.71 637.98 C 1071.83 636.198 1061.68 630.916 1059.04 629.488 C 1033.13 615.469 1027.49 613.581 1011.11 589.368 C 1013.9 589.602 1014.81 589.935 1017.43 589.016 C 1017.14 585.136 1013.72 581.965 1011.03 577.911 z"/>
<path transform="translate(0,0)" fill="rgb(67,0,1)" d="M 1043.78 589.039 C 1051.64 588.668 1055.27 591.43 1062.23 595.139 C 1053.81 594.348 1049.31 595.018 1043.78 589.039 z"/>
<path transform="translate(0,0)" fill="rgb(225,111,109)" d="M 1060.7 594.343 C 1061.78 594.469 1064.43 594.54 1065.03 595.641 C 1068.05 601.156 1071.63 606.317 1075.33 611.388 C 1065.95 607.512 1067.94 602.059 1060.7 594.343 z"/>
<path transform="translate(0,0)" fill="rgb(220,226,235)" d="M 870.039 830.672 C 888.675 829.449 914.215 829.874 933.247 829.95 L 1023.24 830.136 L 1118.17 830.04 C 1130.3 830.018 1163.67 828.234 1175.95 832.522 C 1177.48 833.056 1177.48 835.034 1177.47 836.591 C 1176.33 838.365 1175.45 840.59 1173.31 840.703 C 1156.6 841.587 1135.94 840.955 1119.5 840.887 L 953.854 840.751 L 909.222 840.711 C 904.014 840.708 890.21 840.405 885.741 841.218 C 879.682 836.586 876.631 834.462 870.039 830.672 z"/>
<path transform="translate(0,0)" fill="rgb(220,226,235)" d="M 1103.73 709.035 C 1105.82 712.687 1108.47 717.012 1110.37 720.676 C 1103.67 719.739 1089.71 720.066 1082.4 720.064 L 1033.89 720.095 L 866.452 720.197 C 856.119 720.22 809.005 721.098 801.479 719.75 C 801.146 715.47 801.271 715.035 802.103 710.755 C 807.305 709.291 856.52 709.695 865.605 709.677 L 1050.67 709.993 C 1060.12 710.029 1097.02 711.095 1103.73 709.035 z"/>
<path transform="translate(0,0)" fill="rgb(220,226,235)" d="M 849.99 861.157 C 853.798 862.252 861.107 867.619 864.616 870.111 C 869.012 872.898 874.927 876.384 878.898 879.549 C 882.963 881.769 884.104 883.856 887.941 880.812 C 896.366 881.276 906.037 880.639 914.695 880.572 L 970.188 880.324 C 1015.48 880.233 1061.18 881.217 1106.42 880.642 C 1102.66 884.461 1100.23 886.996 1096.82 891.266 C 1072.27 889.835 868.313 889.458 861.131 893.441 C 858.526 892.361 855.735 889.887 853.441 888.096 C 848.795 885.411 842.595 881.936 839.026 878.013 L 846.982 864.264 L 849.99 861.157 z"/>
<path transform="translate(0,0)" fill="rgb(27,27,62)" d="M 849.99 861.157 C 853.798 862.252 861.107 867.619 864.616 870.111 C 862.218 873.979 859.097 878.703 857.13 882.702 L 853.441 888.096 C 848.795 885.411 842.595 881.936 839.026 878.013 L 846.982 864.264 L 849.99 861.157 z"/>
<path transform="translate(0,0)" fill="rgb(247,248,250)" d="M 864.616 870.111 C 869.012 872.898 874.927 876.384 878.898 879.549 C 875.358 881.056 860.772 882.903 857.13 882.702 C 859.097 878.703 862.218 873.979 864.616 870.111 z"/>
<path transform="translate(0,0)" fill="rgb(220,226,235)" d="M 1090.7 684.95 C 1093.25 689.421 1095.38 693.209 1097.61 697.889 C 1086.78 694.684 1022.24 696.184 1005.91 696.199 L 845.63 696.113 C 838.501 696.136 807.473 697.697 802.48 695.698 C 801.203 695.186 800.792 693.919 800.492 692.65 C 800.095 690.975 800.638 688.606 801.503 687.199 C 802.972 684.808 1016.93 685.827 1039 685.824 C 1049.8 685.822 1080.47 687.676 1089.15 685.394 C 1089.67 685.257 1090.19 685.098 1090.7 684.95 z"/>
<path transform="translate(0,0)" fill="rgb(220,226,235)" d="M 1084.15 672.659 C 1070.93 671.107 1026.98 672.088 1011.93 672.083 L 864.336 671.971 C 851.411 671.957 812.46 673.028 802.214 671.306 L 801.196 669.698 C 800.982 666.474 800.434 665.442 801.691 662.82 C 808.663 660.787 867.004 661.954 877.999 661.787 C 943.982 660.784 1012.73 663.476 1078.46 661.397 L 1084.15 672.659 z"/>
<path transform="translate(0,0)" fill="rgb(220,226,235)" d="M 1071.89 649.092 C 1050.77 648.122 1026.63 648.775 1005.34 648.852 L 878.025 648.882 C 854.271 648.868 826.228 649.557 802.755 648.364 C 800.036 645.743 800.902 647.287 800.133 643.528 C 800.984 641.268 800.615 641.015 802.254 639.721 C 803.851 638.46 806.145 637.679 808.211 637.733 C 822.57 638.107 837.166 638.037 851.501 638.054 L 951.006 638.153 L 1022.97 638.145 C 1036.74 638.094 1058.13 637.472 1071.29 639.083 C 1069.61 643.653 1069.66 644.618 1071.89 649.092 z"/>
<path transform="translate(0,0)" fill="rgb(45,106,167)" d="M 843.576 830.746 C 853.766 828.526 859.688 827.179 870.039 830.672 C 876.631 834.462 879.682 836.586 885.741 841.218 C 888.986 845.642 890.508 847.46 892.67 852.645 C 892.976 857.029 893.392 861.686 893.544 866.052 C 892.312 871.632 890.963 875.865 887.941 880.812 C 884.104 883.856 882.963 881.769 878.898 879.549 C 874.927 876.384 869.012 872.898 864.616 870.111 C 861.107 867.619 853.798 862.252 849.99 861.157 C 845.968 858.25 842.094 856.182 837.792 853.745 C 834.684 851.931 831.822 850.751 829.936 847.796 C 829.92 843.706 830.347 844.407 832.706 840.275 C 836.934 835.795 838.815 834.348 843.576 830.746 z"/>
<path transform="translate(0,0)" fill="rgb(220,226,235)" d="M 1049.85 555.895 C 1060.26 554.684 1072.81 554.831 1083.48 554.868 C 1112.77 554.972 1142.11 554.562 1171.4 554.853 C 1175.62 554.896 1177.87 556.412 1178.66 560.298 C 1176.32 563.155 1172.64 564.81 1168.93 564.812 C 1137.77 564.824 1106.58 564.679 1075.39 565.167 C 1073.21 565.201 1072.3 566.001 1070.97 567.416 C 1067.84 566.376 1053 557.709 1049.85 555.895 z"/>
<path transform="translate(0,0)" fill="rgb(220,226,235)" d="M 1030.03 551.989 C 1033.07 554.285 1036.44 556.973 1039.57 559.058 L 1046.76 563.656 C 1040.49 565.727 947.64 566.223 937.047 564.598 C 935.777 562.028 936.094 559.361 936.069 556.417 C 936.445 555.931 936.821 555.446 937.197 554.96 C 966.831 553.323 996.84 555.611 1026.42 554.535 C 1029.01 554.441 1028.46 554.094 1030.03 551.989 z"/>
<path transform="translate(0,0)" fill="rgb(220,226,235)" d="M 1011.03 577.911 C 1013.72 581.965 1017.14 585.136 1017.43 589.016 C 1014.81 589.935 1013.9 589.602 1011.11 589.368 C 1005.23 586.56 943.673 591.904 937.509 587.916 C 935.244 584.214 935.868 586.203 935.846 581.648 C 936.335 580.871 936.824 580.094 937.313 579.317 C 953.857 577.608 979.197 578.958 994.728 578.869 C 1005.49 578.808 1007.28 579.566 1011.03 577.911 z"/>
<path transform="translate(0,0)" fill="rgb(220,226,235)" d="M 837.792 853.745 C 842.094 856.182 845.968 858.25 849.99 861.157 L 846.982 864.264 L 839.026 878.013 C 836.717 878.04 820.037 870.202 815.953 868.525 C 810.665 866.931 805.368 865.364 800.063 863.826 L 800.049 858.291 C 805.071 849.45 827.427 858.813 837.792 853.745 z"/>
<path transform="translate(0,0)" fill="rgb(247,248,250)" d="M 815.953 868.525 C 819.727 864.896 840.514 864.533 846.982 864.264 L 839.026 878.013 C 836.717 878.04 820.037 870.202 815.953 868.525 z"/>
<path transform="translate(0,0)" fill="rgb(15,17,43)" d="M 1040.43 551.314 L 1049.85 555.895 C 1053 557.709 1067.84 566.376 1070.97 567.416 C 1075.34 569.936 1088.32 576.215 1090.02 579.588 L 1089.4 581.955 C 1083.25 585.255 1069.95 574.491 1064.03 575.531 C 1062.4 577.732 1062.51 577.702 1061.64 580.343 C 1059.6 581.947 1054.19 581.039 1051.4 580.793 L 1056.13 568.896 L 1046.76 563.656 L 1039.57 559.058 L 1040.43 551.314 z"/>
<path transform="translate(0,0)" fill="rgb(220,226,235)" d="M 1126.34 639.77 C 1135.31 638.713 1167.4 638.025 1176.18 639.284 C 1177.65 642.492 1177.1 640.828 1176.7 645.093 C 1169.76 654.843 1149.29 645.151 1138.18 650.383 L 1126.34 639.77 z"/>
<path transform="translate(0,0)" fill="rgb(220,226,235)" d="M 832.706 840.275 C 824.527 840.812 808.076 841.558 800.61 839.069 L 799.52 836.064 C 800.075 834.174 799.77 833.885 801.186 832.704 C 806.871 827.961 836.632 829.644 843.576 830.746 C 838.815 834.348 836.934 835.795 832.706 840.275 z"/>
<path transform="translate(0,0)" fill="rgb(220,226,235)" d="M 1151.31 661.743 C 1159.16 661.822 1171.22 659.943 1175.99 664.129 C 1177.36 666.907 1177.29 666.695 1176.95 669.782 C 1173.46 674.464 1170.19 672.862 1164.86 673.825 C 1161.49 671.326 1154.69 664.808 1151.31 661.743 z"/>
<path transform="translate(0,0)" fill="rgb(220,226,235)" d="M 892.67 852.645 C 898.378 853.357 902.525 854.353 901.876 861.597 C 899.799 865.233 901.194 864.031 898.066 865.915 L 893.544 866.052 C 893.392 861.686 892.976 857.029 892.67 852.645 z"/>
<path transform="translate(0,0)" fill="rgb(25,18,20)" d="M 1030.03 551.989 C 1030.35 549.623 1029.95 550.717 1031.23 548.705 C 1034.57 547.975 1037.14 549.788 1040.43 551.314 L 1039.57 559.058 C 1036.44 556.973 1033.07 554.285 1030.03 551.989 z"/>
<path transform="translate(0,0)" fill="rgb(247,133,28)" d="M 799.893 477.959 C 836.917 478.585 874.658 477.998 911.852 478.292 C 912.503 520.987 911.959 565.148 912.003 607.996 L 799.809 607.901 L 799.893 477.959 z"/>
<path transform="translate(0,0)" fill="rgb(247,248,250)" d="M 837.55 551.075 C 854.775 551.69 850.838 555.858 872.19 550.701 C 894.899 557.795 893.201 573.57 896.597 594.053 L 878.421 594.134 C 857.256 594.335 836.089 594.373 814.923 594.248 C 817.64 574.248 815.797 558.341 837.55 551.075 z"/>
<path transform="translate(0,0)" fill="rgb(247,248,250)" d="M 849.91 499.969 C 858.306 497.845 867.193 500.443 873.123 506.754 C 879.053 513.066 881.092 522.098 878.449 530.345 C 875.805 538.592 868.896 544.756 860.402 546.444 C 847.728 548.964 835.356 540.923 832.51 528.319 C 829.665 515.714 837.383 503.139 849.91 499.969 z"/>
<path transform="translate(0,0)" fill="rgb(220,226,235)" d="M 819.527 806.496 L 1034.75 806.453 C 1079.76 806.355 1124.85 806.308 1169.86 806.243 C 1173.63 806.238 1174.24 806.891 1176.43 809.195 C 1177.08 817.252 1171.99 816.715 1166.25 816.863 L 915.654 816.971 C 892.399 816.719 869.142 816.619 845.885 816.671 C 837.408 816.711 806.273 818.91 801.46 814.527 C 801.015 811.811 800.465 810.331 801.532 807.815 C 805.069 806.035 815.084 806.515 819.527 806.496 z"/>
<path transform="translate(0,0)" fill="rgb(220,226,235)" d="M 935.711 483.087 L 1089.88 483.15 C 1118.03 483.174 1148.48 482.56 1176.33 483.609 L 1176.57 493.782 C 1170.08 494.429 1151.31 493.963 1144.01 493.964 L 1076.67 493.97 L 986.53 494.015 C 971.264 494.018 951.548 494.635 936.867 493.583 C 935.313 490.611 935.716 486.592 935.711 483.087 z"/>
<path transform="translate(0,0)" fill="rgb(220,226,235)" d="M 944.296 507.556 C 962.394 506.384 1169.93 505.825 1175.6 508.189 C 1177.07 511.451 1176.81 512.448 1176.73 515.97 C 1173.81 518.14 1172.32 517.473 1167.93 517.817 L 1027.36 517.888 C 999.8 517.91 965.289 518.779 938.162 517.266 C 935.323 515.432 936.186 516.671 935.363 513.515 C 937.331 506.769 938.078 507.962 944.296 507.556 z"/>
<path transform="translate(0,0)" fill="rgb(220,226,235)" d="M 935.908 530.964 L 1110.25 530.964 L 1154.37 530.987 C 1160.71 530.99 1168.36 530.775 1174.66 531.292 C 1176.1 531.41 1176.02 532.16 1177.13 533.922 C 1177.39 537.404 1177.56 537.377 1176.25 540.787 L 1173.75 541.46 C 1162.26 542.15 1143.37 541.625 1131.31 541.672 L 1023.99 541.32 L 964.678 541.605 C 958.2 541.597 942.543 541.902 936.878 541.015 C 935.462 538.133 935.877 534.313 935.908 530.964 z"/>
<path transform="translate(0,0)" fill="rgb(220,226,235)" d="M 800.283 733.968 L 874.496 733.79 C 884.338 733.772 906.496 733.139 915.121 734.393 C 916.287 736.874 915.886 741.069 915.846 744.016 L 840.84 744.118 C 831.451 744.123 810.294 744.671 801.682 743.512 C 799.876 740.83 800.334 737.397 800.283 733.968 z"/>
<path transform="translate(0,0)" fill="rgb(195,141,63)" d="M 1131.61 601.825 C 1126.46 609.623 1120.15 614.681 1109.97 608.539 C 1099.16 602.016 1104.14 593.234 1102.5 584.633 C 1098.82 581.934 1095.7 584.465 1092.02 581.972 L 1092.43 579.637 L 1093.95 578.882 C 1102.34 582.426 1107.9 580.991 1115.11 575.757 C 1117.55 573.99 1126.06 577.841 1128.96 578.807 C 1132.83 584.499 1133.4 585.932 1133.14 592.81 L 1132.02 596.052 C 1133.24 599.242 1138.13 601.119 1141.8 604.876 C 1137.71 604.981 1135.5 603.529 1131.61 601.825 z"/>
<path transform="translate(0,0)" fill="rgb(247,248,250)" d="M 1115.07 578.527 C 1120.44 578.823 1124.3 578.49 1127.73 583.307 C 1130.38 586.975 1131.28 591.629 1130.19 596.023 C 1128.4 603.091 1126.58 604.968 1120.78 608.499 C 1112.1 607.053 1104.48 600.545 1105.7 591.178 C 1106.52 584.809 1110.36 582.247 1115.07 578.527 z"/>
<path transform="translate(0,0)" fill="rgb(220,226,235)" d="M 940.441 602.549 C 951.022 602.108 999.161 601.144 1007.37 602.545 C 1009.28 605.194 1008.95 607.202 1009.06 610.504 C 1007.48 612.946 1008.57 612.005 1005.2 612.764 C 995.597 612.895 942.326 614.267 936.745 612.167 C 935.129 608.401 934.881 606.497 937.1 602.933 L 940.441 602.549 z"/>
<path transform="translate(0,0)" fill="rgb(220,226,235)" d="M 1128.96 578.807 C 1136.77 578.812 1170.74 577.529 1174.81 579.552 C 1177.12 581.965 1177.01 581.75 1177.55 585.048 C 1177.15 586.301 1177.21 587.516 1175.92 588.112 C 1166.29 592.546 1138.46 583.44 1133.14 592.81 C 1133.4 585.932 1132.83 584.499 1128.96 578.807 z"/>
<path transform="translate(0,0)" fill="rgb(45,106,167)" d="M 480.265 757.278 C 483.309 754.138 489.446 749.166 493.277 747.121 C 502.7 756.364 529.708 768.583 543.008 778.579 C 549.992 770.941 556.762 764.17 558.936 753.798 C 565.766 754.67 570.087 755.18 576.238 758.225 L 577.019 760.841 L 577.645 760.983 L 582.083 908.292 L 595.656 908.89 C 594.558 931.376 594.477 962.447 595.02 985.146 C 594.827 989.227 594.592 993.305 594.314 997.381 C 594.007 992.608 594.349 989.982 593.688 984.768 L 592.009 984.251 C 591.592 990.807 591.762 994.188 592.165 1000.69 C 592.503 1006.62 592.745 1008.94 591.781 1014.96 C 592.023 1047.27 592.738 1081.87 592.126 1114.02 L 591.873 1115.95 C 591.354 1120.02 592.467 1122.91 590.106 1126.31 C 587.836 1127.26 587.875 1127.33 585.451 1127.58 C 580.565 1126.52 578.184 1126.35 573.167 1126.05 C 570.594 1129.02 567.019 1132.96 566.103 1136.92 L 564.904 1138.45 C 561.698 1142.64 559.807 1148.55 555.934 1150.62 C 552.402 1149.96 553.237 1149.72 550.219 1146.19 C 548.368 1143.43 545.916 1139.12 543.311 1137.36 C 534.889 1137.88 526.466 1137.88 518.03 1137.97 C 510.738 1214.5 523.553 1239.27 424.012 1227.68 C 419.128 1227.12 407.16 1224.36 403.111 1225.96 C 401.314 1223.45 378.362 1217.14 373.109 1215.54 C 371.569 1203.61 374.366 1179.8 375.914 1167.27 C 378.382 1147.31 379.992 1128.01 381.967 1108 C 383.45 1092.97 386.54 1079.47 386.948 1063.72 L 387.593 1045.81 C 386.84 1043.93 386.58 1042.78 384.103 1042.34 C 365.539 1038.59 335.043 1035.44 320.092 1022.8 C 293.622 1000.44 310.328 961.167 319.971 937.092 C 337.473 893.395 356.337 855.638 377.012 813.984 C 391.991 783.806 408.989 778.109 439.532 768.037 C 447.343 766.737 454.909 764.608 462.565 762.595 C 468.913 760.93 474.035 759.359 480.265 757.278 z"/>
<path transform="translate(0,0)" fill="rgb(247,248,250)" d="M 480.265 757.278 C 483.309 754.138 489.446 749.166 493.277 747.121 C 502.7 756.364 529.708 768.583 543.008 778.579 C 549.992 770.941 556.762 764.17 558.936 753.798 C 565.766 754.67 570.087 755.18 576.238 758.225 L 577.019 760.841 L 577.645 760.983 L 582.083 908.292 L 595.656 908.89 C 594.558 931.376 594.477 962.447 595.02 985.146 C 594.827 989.227 594.592 993.305 594.314 997.381 C 594.007 992.608 594.349 989.982 593.688 984.768 L 592.009 984.251 C 591.372 960.689 591.7 937.207 591.39 913.646 C 553.673 912.019 515.805 908.896 478.053 907.324 C 465.788 906.814 453.203 906.196 441.008 904.938 C 443.93 897.55 459.954 901.009 467.251 901.437 C 461.753 892.132 450.983 864.016 446.159 852.494 C 454.717 847.685 462.419 842.275 470.151 836.265 C 462.037 829.434 454.846 823.282 446.151 817.136 C 451.969 799.739 457.092 780.369 462.565 762.595 C 468.913 760.93 474.035 759.359 480.265 757.278 z"/>
<path transform="translate(0,0)" fill="rgb(23,58,94)" d="M 462.565 762.595 C 468.913 760.93 474.035 759.359 480.265 757.278 C 481.2 760.419 482.27 763.784 483.077 766.933 C 486.65 788.074 491.088 808.839 494.812 829.892 C 498.922 854.367 502.864 878.87 506.639 903.399 C 498.024 903.091 475.193 902.751 467.251 901.437 C 461.753 892.132 450.983 864.016 446.159 852.494 C 454.717 847.685 462.419 842.275 470.151 836.265 C 462.037 829.434 454.846 823.282 446.151 817.136 C 451.969 799.739 457.092 780.369 462.565 762.595 z"/>
<path transform="translate(0,0)" fill="rgb(247,133,28)" d="M 524.053 801.4 C 530.374 795.256 535.866 785.892 542.964 778.81 C 551.245 786.07 555.257 791.163 561.763 799.946 L 554.497 815.23 C 557.538 840.21 562.176 865.238 565.703 890.175 C 566.482 895.686 567.308 901.714 568.449 907.143 C 557.492 906.659 541.017 906.332 530.629 904.934 L 535.871 815.614 L 524.053 801.4 z"/>
<path transform="translate(0,0)" fill="rgb(27,27,62)" d="M 435.931 973.892 C 435.919 953.361 433.952 925.803 435.094 906.144 C 437.255 904.316 437.352 904.977 441.008 904.938 C 453.203 906.196 465.788 906.814 478.053 907.324 C 515.805 908.896 553.673 912.019 591.39 913.646 C 591.7 937.207 591.372 960.689 592.009 984.251 C 591.592 990.807 591.762 994.188 592.165 1000.69 C 592.503 1006.62 592.745 1008.94 591.781 1014.96 L 590.749 1016.66 C 582.556 1030.42 582.691 1047.42 563.624 1051.81 C 543.343 1056.47 520.175 1052.23 500.459 1046.93 C 501.32 1040.14 503.143 1005.67 505.493 1002.64 C 504.965 1000.55 504.673 1000.14 503.788 998.147 C 494.226 990.926 422.762 974.773 406.234 969.47 C 398.386 963.618 403.787 967.721 403.261 960.678 C 404.019 955.231 427.143 912.107 431.383 903.725 C 425.734 924.449 419.77 945.085 413.491 965.627 L 435.931 973.892 z"/>
<path transform="translate(0,0)" fill="rgb(244,157,150)" d="M 505.493 1002.64 C 513.514 998.236 555.833 974.548 562.154 981.906 C 560.865 992.376 547.008 995.925 543.526 1002.85 C 552.482 1009.84 580.598 1001.16 592.165 1000.69 C 592.503 1006.62 592.745 1008.94 591.781 1014.96 L 590.749 1016.66 C 582.556 1030.42 582.691 1047.42 563.624 1051.81 C 543.343 1056.47 520.175 1052.23 500.459 1046.93 C 501.32 1040.14 503.143 1005.67 505.493 1002.64 z"/>
<path transform="translate(0,0)" fill="rgb(27,27,62)" d="M 591.781 1014.96 C 592.023 1047.27 592.738 1081.87 592.126 1114.02 L 591.873 1115.95 C 591.354 1120.02 592.467 1122.91 590.106 1126.31 C 587.836 1127.26 587.875 1127.33 585.451 1127.58 C 580.565 1126.52 578.184 1126.35 573.167 1126.05 C 570.594 1129.02 567.019 1132.96 566.103 1136.92 L 564.904 1138.45 C 561.698 1142.64 559.807 1148.55 555.934 1150.62 C 552.402 1149.96 553.237 1149.72 550.219 1146.19 C 548.368 1143.43 545.916 1139.12 543.311 1137.36 C 539.949 1132.92 536.633 1128.77 533.889 1123.91 C 529.146 1123.27 523.462 1123.22 518.615 1123.02 C 490.65 1121.6 462.81 1119.23 434.933 1117.81 C 434.508 1095.74 434.543 1073.66 435.036 1051.6 C 454.896 1054.63 479.452 1057.65 499.437 1059.41 C 499.628 1055.03 499.987 1051.29 500.459 1046.93 C 520.175 1052.23 543.343 1056.47 563.624 1051.81 C 582.691 1047.42 582.556 1030.42 590.749 1016.66 L 591.781 1014.96 z"/>
<path transform="translate(0,0)" fill="rgb(247,133,28)" d="M 533.889 1123.91 C 543.306 1124.77 564.055 1126.32 573.167 1126.05 C 570.594 1129.02 567.019 1132.96 566.103 1136.92 L 564.904 1138.45 C 561.698 1142.64 559.807 1148.55 555.934 1150.62 C 552.402 1149.96 553.237 1149.72 550.219 1146.19 C 548.368 1143.43 545.916 1139.12 543.311 1137.36 C 539.949 1132.92 536.633 1128.77 533.889 1123.91 z"/>
<path transform="translate(0,0)" fill="url(#Gradient2)" d="M 387.593 1045.81 C 391.334 1042.69 426.271 1049.91 432.957 1051.1 C 419.323 1056.36 401.087 1059 386.948 1063.72 L 387.593 1045.81 z"/>
<path transform="translate(0,0)" fill="rgb(247,248,250)" d="M 518.615 1123.02 C 523.462 1123.22 529.146 1123.27 533.889 1123.91 C 536.633 1128.77 539.949 1132.92 543.311 1137.36 C 536.153 1136.76 525.516 1137.12 518.093 1137.16 L 518.615 1123.02 z"/>
<path transform="translate(0,0)" fill="rgb(15,17,43)" d="M 362.177 958.013 C 374.585 958.038 384.361 960.671 396.515 962.446 C 400.731 963.062 400.707 962.665 403.261 960.678 C 403.787 967.721 398.386 963.618 406.234 969.47 C 391.509 965.804 376.823 961.985 362.177 958.013 z"/>
<path transform="translate(0,0)" fill="rgb(247,248,250)" d="M 747.16 513.825 C 749.563 519.359 747.862 776.202 748.146 801.859 C 732.167 810.088 730.021 819.309 729.642 836.092 C 735.437 835.97 742.12 835.978 747.825 835.62 C 752.159 835.511 750.482 834.801 753.441 836.751 L 753.348 848.759 C 753.326 852.473 753.794 856.763 751.914 859.735 C 750.427 860.322 749.513 860.733 747.966 861.148 C 733.887 858.625 703.317 870.846 690.601 877.154 C 687.638 870.62 684.782 863.326 682.011 856.651 C 686.78 853.998 691.341 851.195 696.001 848.366 C 686.439 834.28 682.006 831.983 665.967 828.497 C 650.599 783.776 640.41 775.093 594.331 762.947 C 589.354 761.386 581.776 757.779 577.645 760.983 L 577.019 760.841 L 576.238 758.225 C 570.087 755.18 565.766 754.67 558.936 753.798 C 556.762 764.17 549.992 770.941 543.008 778.579 C 529.708 768.583 502.7 756.364 493.277 747.121 C 493.687 739.033 493.929 730.937 494.004 722.838 C 480.841 715.34 471.217 696.162 465.213 682.912 C 459.961 668.002 454.258 655.523 454.805 639.393 C 455.326 624.017 464.922 619.373 466.024 615.696 C 469.07 605.538 466.322 596.587 480.269 585.77 C 501.936 568.965 528.319 574.134 553.331 571.637 C 561.794 570.791 572.101 562.168 582.401 563.07 C 591.282 558.525 601.698 550.644 612.102 545.547 C 643.235 530.297 677.519 517.773 712.183 514.203 C 721.13 513.282 737.862 513.792 747.16 513.825 z"/>
<path transform="translate(0,0)" fill="rgb(244,157,150)" d="M 465.213 682.912 C 459.961 668.002 454.258 655.523 454.805 639.393 C 455.326 624.017 464.922 619.373 466.024 615.696 C 469.07 605.538 466.322 596.587 480.269 585.77 C 501.936 568.965 528.319 574.134 553.331 571.637 C 561.794 570.791 572.101 562.168 582.401 563.07 C 607.434 578.242 617.247 612.639 592.774 633.223 C 592.325 643.19 589.564 651.657 588.581 661.011 C 587.335 682.438 587.35 715.645 569.821 732.368 C 567.355 734.72 559.686 736.184 558.352 737.31 L 558.135 738.975 C 559.055 745.142 559.021 747.737 558.936 753.798 C 556.762 764.17 549.992 770.941 543.008 778.579 C 529.708 768.583 502.7 756.364 493.277 747.121 C 493.687 739.033 493.929 730.937 494.004 722.838 C 480.841 715.34 471.217 696.162 465.213 682.912 z"/>
<path transform="translate(0,0)" fill="rgb(27,27,62)" d="M 465.213 682.912 C 459.961 668.002 454.258 655.523 454.805 639.393 C 455.326 624.017 464.922 619.373 466.024 615.696 C 469.07 605.538 466.322 596.587 480.269 585.77 C 501.936 568.965 528.319 574.134 553.331 571.637 C 561.794 570.791 572.101 562.168 582.401 563.07 C 607.434 578.242 617.247 612.639 592.774 633.223 C 592.325 643.19 589.564 651.657 588.581 661.011 C 586.701 657.2 586.385 641.568 585.476 635.582 C 566.369 638.658 546.363 636.865 527.384 633.714 C 491.57 627.766 512.52 669.328 498.537 674.705 C 492.657 672.089 488.984 664.01 481.824 666.608 C 472.029 670.163 469.599 678.194 475.649 686.731 C 481.53 695.029 484.482 696.091 494.002 697.382 C 494.451 703.241 495.962 718.038 494.004 722.838 C 480.841 715.34 471.217 696.162 465.213 682.912 z"/>
<path transform="translate(0,0)" fill="rgb(225,111,109)" d="M 504.237 717.76 C 522.993 731.364 535.224 737.529 558.352 737.31 L 558.135 738.975 C 557.676 743.073 557.906 749.928 557.921 754.251 C 530.808 748.963 517.373 744.251 504.237 717.76 z"/>
<path transform="translate(0,0)" fill="rgb(67,115,162)" d="M 747.825 835.62 C 752.159 835.511 750.482 834.801 753.441 836.751 L 753.348 848.759 C 753.326 852.473 753.794 856.763 751.914 859.735 C 750.427 860.322 749.513 860.733 747.966 861.148 C 747.193 854 747.7 843.074 747.825 835.62 z"/>
<path transform="translate(0,0)" fill="rgb(220,226,235)" d="M 773.958 421.899 L 1206.26 421.965 L 1206.35 448.815 C 1063.86 449.432 917.477 450.476 775.129 448.826 C 775.087 460.489 775.602 496.603 774.149 506.494 C 772.866 482.08 773.957 446.877 773.958 421.899 z"/>
<path transform="translate(0,0)" fill="rgb(27,27,62)" d="M 1004.79 964.085 C 1007.46 962.491 1013.26 959.112 1016.03 958.585 C 1034.77 955.031 1060.87 956.683 1080.29 956.995 L 1072.18 1031.96 C 1071.62 1037.57 1070.44 1058.6 1069.48 1062.52 C 1053.13 1062.45 1035.96 1063.26 1019.84 1062.21 L 1016.48 1062.11 C 1002.77 1054.43 996.904 1049.4 990.615 1035.21 C 986.722 1023.66 986.746 1016.51 986.792 1004.41 C 986.818 1003.62 986.858 1002.82 986.911 1002.02 C 987.987 986.314 992.93 974.539 1004.79 964.085 z"/>
<path transform="translate(0,0)" fill="rgb(27,27,62)" d="M 787.497 395.385 L 1232.6 395.136 C 1231.54 403.317 1231.89 413.299 1231.94 421.686 C 1214.32 419.994 1172.45 420.971 1153.56 420.972 L 1001.2 421.046 C 1001.47 412.929 1001.25 403.961 1001.21 395.777 L 862.237 395.764 C 838.134 395.765 811.291 396.371 787.497 395.385 z"/>
<path transform="translate(0,0)" fill="rgb(23,58,94)" d="M 577.645 760.983 C 581.776 757.779 589.354 761.386 594.331 762.947 C 596.642 771.758 614.554 804.441 619.928 814.583 C 614.582 820.991 606.756 829.444 602.057 835.89 C 609.747 840.609 619.496 846.302 626.237 852.055 C 620.509 872.095 602.103 974.709 595.02 985.146 C 594.477 962.447 594.558 931.376 595.656 908.89 L 582.083 908.292 L 577.645 760.983 z"/>
<path transform="translate(0,0)" fill="rgb(247,248,250)" d="M 913.314 963.053 C 924.994 963.024 999.514 961.294 1004.79 964.085 C 992.93 974.539 987.987 986.314 986.911 1002.02 C 986.858 1002.82 986.818 1003.62 986.792 1004.41 C 980.032 1005.71 932.79 1004.91 923.114 1004.83 C 920.936 989.117 918.761 977.818 913.314 963.053 z"/>
<path transform="translate(0,0)" fill="rgb(220,226,235)" d="M 923.114 1004.83 C 932.79 1004.91 980.032 1005.71 986.792 1004.41 C 986.746 1016.51 986.722 1023.66 990.615 1035.21 C 985.198 1037.11 932.64 1035.81 923.584 1035.73 C 924.242 1024.9 923.841 1015.61 923.114 1004.83 z"/>
<path transform="translate(0,0)" fill="rgb(27,27,62)" d="M 753.441 836.751 C 755.959 835.184 767.072 835.383 770.8 835.29 C 770.951 843.194 771.204 851.311 771.12 859.195 C 766.521 859.274 758.423 860.448 754.882 858.4 C 752.837 855.413 753.352 852.518 753.348 848.759 L 753.441 836.751 z"/>
<path transform="translate(0,0)" fill="rgb(169,185,211)" d="M 592.009 984.251 L 593.688 984.768 C 594.349 989.982 594.007 992.608 594.314 997.381 C 594.72 1033.56 594.267 1078.37 592.126 1114.02 C 592.738 1081.87 592.023 1047.27 591.781 1014.96 C 592.745 1008.94 592.503 1006.62 592.165 1000.69 C 591.762 994.188 591.592 990.807 592.009 984.251 z"/>
<path transform="translate(0,0)" fill="rgb(247,248,250)" d="M 750.897 885.773 C 826.349 879.443 892.623 935.535 898.85 1011 C 905.077 1086.46 848.895 1152.65 773.426 1158.78 C 698.101 1164.89 632.059 1108.84 625.844 1033.52 C 619.629 958.209 675.589 892.09 750.897 885.773 z"/>
<path transform="translate(0,0)" fill="rgb(27,27,62)" d="M 760.227 938.88 C 761.366 938.867 762.4 938.819 763.544 938.988 C 781.549 941.651 763.705 1000.76 773.18 1012.3 C 781.327 1022.22 844.832 1032.25 850.607 1041.92 C 851.983 1044.22 852.574 1046.63 851.619 1049.23 C 850.302 1052.82 847.375 1053.78 844.117 1054.93 C 825.078 1049.53 790.022 1037.53 771.375 1030.71 C 764.998 1032.54 759.203 1033.49 754.17 1028.05 C 746.037 1019.25 754.767 1015.53 754.886 1008.34 C 755.197 989.5 754.227 970.378 754.796 951.524 C 754.986 945.219 755.445 943.045 760.227 938.88 z"/>
<path transform="translate(0,0)" fill="rgb(15,17,43)" d="M 706.8 1109.32 C 710.289 1110.4 711.391 1110.47 714.109 1112.99 C 715.605 1120.15 707.478 1129.62 703.098 1136.41 C 699.989 1135.16 697.894 1134.72 695.872 1132.08 C 694.437 1126.01 702.935 1115.65 706.8 1109.32 z"/>
<path transform="translate(0,0)" fill="rgb(15,17,43)" d="M 822.69 908.658 C 825.687 909.814 829.836 912.212 832.763 913.781 C 827.936 921.132 823.767 928.042 819.293 935.622 C 816.086 934.826 813.834 934.226 811.667 931.79 C 810.224 926.005 818.881 915.235 822.69 908.658 z"/>
<path transform="translate(0,0)" fill="rgb(15,17,43)" d="M 758.012 893.002 C 761.275 892.843 763.83 892.341 766.736 893.684 C 771.281 899.283 769.027 911.521 768.839 918.941 C 765.536 919.076 763.142 919.554 760.233 918.107 C 755.862 912.887 757.966 900.214 758.012 893.002 z"/>
<path transform="translate(0,0)" fill="rgb(15,17,43)" d="M 653.67 953.368 C 661.764 957.806 668.494 961.608 676.307 966.563 C 674.686 970.253 673.447 971.955 671.198 975.353 C 663.82 971.802 655.943 966.845 648.835 962.608 L 653.67 953.368 z"/>
<path transform="translate(0,0)" fill="rgb(15,17,43)" d="M 702.464 908.05 C 705.576 911.197 713.535 925.489 715.036 929.824 C 713.323 933.044 710.538 934.033 707.25 935.877 C 703 930.003 697.674 920.209 693.888 913.705 L 702.464 908.05 z"/>
<path transform="translate(0,0)" fill="rgb(15,17,43)" d="M 758.225 1126 C 761.494 1125.67 763.818 1125.05 766.755 1126.37 C 771.052 1131.48 769.014 1144.21 768.995 1151.31 C 765.692 1151.54 763.188 1152.11 760.255 1150.73 C 755.853 1145.73 758.028 1132.84 758.225 1126 z"/>
<path transform="translate(0,0)" fill="rgb(15,17,43)" d="M 870.682 953.851 C 873.663 956.735 874.277 958.715 876.135 962.527 C 869.676 966.832 861.271 971.39 854.435 975.332 C 851.164 973.518 850.086 970.027 848.442 966.586 C 855.655 962.803 863.565 957.974 870.682 953.851 z"/>
<path transform="translate(0,0)" fill="rgb(15,17,43)" d="M 669.557 1069.92 L 670.903 1070.01 C 673.751 1071.53 674.713 1074.55 676.264 1077.59 C 669.919 1081.71 661.335 1086.28 654.631 1090.09 L 653.823 1089.94 C 651.161 1087.94 649.701 1084.52 648.06 1081.51 L 669.557 1069.92 z"/>
<path transform="translate(0,0)" fill="rgb(15,17,43)" d="M 817.731 1108.64 C 821.915 1110.89 829.498 1125.42 831.158 1130.01 C 830.095 1132.75 827.141 1133.99 824.464 1135.66 C 820.745 1133.91 812.737 1118.8 811.199 1114.61 C 812.255 1111.95 815.232 1110.41 817.731 1108.64 z"/>
<path transform="translate(0,0)" fill="rgb(15,17,43)" d="M 853.753 1068.4 L 876.998 1081.46 C 875.161 1084.36 873.012 1087.22 870.99 1090 C 868.315 1089.29 851.833 1079.12 848.75 1077.27 C 850.098 1074.47 852.17 1071.13 853.753 1068.4 z"/>
<path transform="translate(0,0)" fill="rgb(15,17,43)" d="M 633.263 1016.72 C 642.453 1016.99 650.995 1014.93 658.449 1018.21 C 660.823 1021.57 659.944 1021.74 659.956 1026.85 C 650.77 1026.86 641.658 1029.32 634.486 1025.44 C 632.443 1021.88 633.226 1021.56 633.263 1016.72 z"/>
<path transform="translate(0,0)" fill="rgb(15,17,43)" d="M 865.217 1016.46 C 874.135 1016.71 882.264 1014.55 889.591 1018.06 C 891.758 1021.59 890.925 1021.75 890.837 1026.75 C 882.306 1026.8 873.217 1028.89 866.355 1025.62 C 864.056 1021.84 864.963 1021.87 865.217 1016.46 z"/>
<path transform="translate(0,0)" fill="rgb(67,115,162)" d="M 658.711 871.438 C 664.035 867.631 668.627 864.355 674.221 860.93 C 677.973 866.952 681.83 873.465 686.134 879.05 C 681.208 882.129 674.848 885.857 670.185 889.101 C 666.925 891.471 656.358 899.029 653.167 900.309 C 651.343 904.25 652.676 903.14 649.762 905.064 C 646.435 900.304 647.878 881.169 652.599 875.992 C 653.983 875.445 657.338 872.535 658.711 871.438 z"/>
<path transform="translate(0,0)" fill="rgb(27,27,62)" d="M 658.711 871.438 C 664.035 867.631 668.627 864.355 674.221 860.93 C 677.973 866.952 681.83 873.465 686.134 879.05 C 681.208 882.129 674.848 885.857 670.185 889.101 C 666.19 883.999 662.173 877.061 658.711 871.438 z"/>
<path transform="translate(0,0)" fill="rgb(15,17,43)" d="M 652.599 875.992 C 652.257 885.899 652.069 890.658 653.167 900.309 C 651.343 904.25 652.676 903.14 649.762 905.064 C 646.435 900.304 647.878 881.169 652.599 875.992 z"/>
<path transform="translate(0,0)" fill="rgb(23,58,94)" d="M 648.274 814.729 L 649.47 815.965 C 650.975 822.176 651.617 827.867 650.631 834.204 L 648.699 832.705 C 647.431 826.772 648.02 820.813 648.274 814.729 z"/>
<path transform="translate(0,0)" fill="rgb(247,133,28)" d="M 1141.17 1327.31 C 1151.75 1326.76 1164.04 1325.8 1174.45 1326.82 L 1181.37 1326.86 L 1258.07 1326.97 C 1272.49 1327.03 1288.47 1327.45 1302.76 1327.08 L 1359.2 1326.97 C 1370.82 1327.09 1392.09 1327.97 1402.95 1327.18 L 1557.71 1327.24 C 1578.31 1327.25 1615.65 1328.44 1634.83 1327 L 1635.04 1350.94 C 1623.48 1350.53 1612.67 1350.78 1601.12 1351.01 L 1601.29 1421.56 C 1601.78 1447 1602.68 1478.12 1601.6 1503.33 L 1601.08 1507.8 C 1612.22 1507.95 1623.37 1507.97 1634.52 1507.86 C 1634.68 1515.86 1635.1 1524.78 1634.34 1532.67 C 1651.68 1532.1 1669.16 1532.71 1686.54 1532.63 L 1685.88 1550.89 C 1676.41 1551.13 1666.93 1551.23 1657.46 1551.17 C 1658.75 1571.25 1658.04 1600.92 1658.03 1621.46 C 1667.58 1620.92 1676.67 1621.35 1686.01 1620.97 C 1685.82 1627.29 1685.77 1634.34 1685.41 1640.59 L 1706.93 1639.95 L 1707.14 1656.93 C 1702.64 1656.67 1684.97 1655.81 1681.81 1657.03 C 1682.01 1675.07 1682.35 1695.13 1681.87 1713.17 C 1687.63 1713.93 1699.6 1713.62 1705.88 1713.56 L 1705.89 1729.28 C 1696.08 1729.11 1686.27 1729.1 1676.47 1729.26 C 1657.07 1730.78 1623.01 1729.8 1602.8 1729.82 L 1459.66 1729.86 L 1273.99 1729.88 C 1245.28 1729.88 1207.67 1731 1179.49 1729.76 C 1184.81 1729.07 1197.61 1729.15 1203.47 1729.02 C 1179.37 1705.83 1180.1 1662.93 1206.14 1641.17 L 1223.95 1640.88 C 1235.7 1640.82 1247.44 1640.85 1259.19 1640.97 C 1265.68 1640.99 1269.85 1641.04 1276.31 1640.26 C 1272.51 1637.59 1268.37 1634.73 1265.08 1631.46 C 1247.32 1613.77 1243.77 1577.76 1254.45 1555.56 C 1258.17 1551.73 1259.39 1537.21 1259.38 1531.8 L 1257.89 1532.56 C 1251.35 1532.26 1240.92 1532.76 1234.1 1532.89 C 1213.23 1532.92 1192.35 1532.77 1171.48 1532.45 C 1154.08 1533.29 1130.76 1533.17 1113.11 1532.83 C 1109.79 1529.7 1105.93 1526.51 1103 1523.02 C 1067.18 1480.25 1065.03 1369.48 1109.87 1332.8 C 1116.85 1329.37 1133.61 1330.43 1141.17 1327.31 z"/>
<path transform="translate(0,0)" fill="rgb(247,248,250)" d="M 1141.17 1327.31 C 1151.75 1326.76 1164.04 1325.8 1174.45 1326.82 L 1181.37 1326.86 L 1258.07 1326.97 C 1272.49 1327.03 1288.47 1327.45 1302.76 1327.08 L 1359.2 1326.97 C 1370.82 1327.09 1392.09 1327.97 1402.95 1327.18 L 1557.71 1327.24 C 1578.31 1327.25 1615.65 1328.44 1634.83 1327 L 1635.04 1350.94 C 1623.48 1350.53 1612.67 1350.78 1601.12 1351.01 L 1601.29 1421.56 C 1601.78 1447 1602.68 1478.12 1601.6 1503.33 L 1601.08 1507.8 C 1519.65 1506.59 1437.62 1508.99 1356.13 1507.75 C 1343.95 1507.57 1331.19 1507.7 1319.01 1507.99 C 1314.98 1479.1 1305.19 1458.03 1272.48 1459.73 C 1255.2 1460.63 1236.45 1459.09 1218.82 1459.92 L 1218.87 1461.07 C 1245.88 1464.99 1255.26 1483.21 1257.58 1508.55 C 1258.49 1516.48 1258.56 1524.86 1259.38 1531.8 L 1257.89 1532.56 C 1251.35 1532.26 1240.92 1532.76 1234.1 1532.89 C 1213.23 1532.92 1192.35 1532.77 1171.48 1532.45 C 1154.08 1533.29 1130.76 1533.17 1113.11 1532.83 C 1109.79 1529.7 1105.93 1526.51 1103 1523.02 C 1067.18 1480.25 1065.03 1369.48 1109.87 1332.8 C 1116.85 1329.37 1133.61 1330.43 1141.17 1327.31 z"/>
<path transform="translate(0,0)" fill="rgb(45,106,167)" d="M 1141.17 1327.31 C 1151.75 1326.76 1164.04 1325.8 1174.45 1326.82 L 1181.37 1326.86 L 1258.07 1326.97 C 1272.49 1327.03 1288.47 1327.45 1302.76 1327.08 L 1359.2 1326.97 C 1370.82 1327.09 1392.09 1327.97 1402.95 1327.18 L 1557.71 1327.24 C 1578.31 1327.25 1615.65 1328.44 1634.83 1327 L 1635.04 1350.94 C 1623.48 1350.53 1612.67 1350.78 1601.12 1351.01 L 1362.64 1351.25 L 1295.83 1351.33 C 1282.98 1351.3 1269.72 1350.95 1256.98 1351.91 C 1220.4 1354.65 1215.06 1402.8 1216.02 1431.14 C 1216.19 1436.3 1215.64 1457.22 1218.82 1459.92 L 1218.87 1461.07 C 1245.88 1464.99 1255.26 1483.21 1257.58 1508.55 C 1258.49 1516.48 1258.56 1524.86 1259.38 1531.8 L 1257.89 1532.56 C 1251.35 1532.26 1240.92 1532.76 1234.1 1532.89 C 1213.23 1532.92 1192.35 1532.77 1171.48 1532.45 C 1154.08 1533.29 1130.76 1533.17 1113.11 1532.83 C 1109.79 1529.7 1105.93 1526.51 1103 1523.02 C 1067.18 1480.25 1065.03 1369.48 1109.87 1332.8 C 1116.85 1329.37 1133.61 1330.43 1141.17 1327.31 z"/>
<path transform="translate(0,0)" fill="rgb(15,17,43)" d="M 1141.17 1327.31 C 1151.75 1326.76 1164.04 1325.8 1174.45 1326.82 C 1171.01 1329.12 1165.64 1332.54 1162.84 1335.44 C 1120.48 1379.38 1121.71 1495.69 1171.48 1532.45 C 1154.08 1533.29 1130.76 1533.17 1113.11 1532.83 C 1109.79 1529.7 1105.93 1526.51 1103 1523.02 C 1067.18 1480.25 1065.03 1369.48 1109.87 1332.8 C 1116.85 1329.37 1133.61 1330.43 1141.17 1327.31 z"/>
<path transform="translate(0,0)" fill="rgb(247,248,250)" d="M 1218.87 1461.07 C 1245.88 1464.99 1255.26 1483.21 1257.58 1508.55 C 1240.84 1506.86 1228.31 1495.99 1221.8 1480.74 C 1220.04 1476.61 1217.2 1465.34 1218.87 1461.07 z"/>
<path transform="translate(0,0)" fill="rgb(169,185,211)" d="M 1601.29 1421.56 C 1601.78 1447 1602.68 1478.12 1601.6 1503.33 C 1600.01 1496.15 1600.73 1450.96 1600.78 1440.87 C 1526.51 1439.33 1446.26 1440.91 1371.36 1440.99 L 1371.2 1422.06 C 1447.53 1422.01 1525.03 1422.64 1601.29 1421.56 z"/>
<path transform="translate(0,0)" fill="rgb(247,248,250)" d="M 1685.41 1640.59 L 1706.93 1639.95 L 1707.14 1656.93 C 1702.64 1656.67 1684.97 1655.81 1681.81 1657.03 C 1682.01 1675.07 1682.35 1695.13 1681.87 1713.17 C 1687.63 1713.93 1699.6 1713.62 1705.88 1713.56 L 1705.89 1729.28 C 1696.08 1729.11 1686.27 1729.1 1676.47 1729.26 C 1657.07 1730.78 1623.01 1729.8 1602.8 1729.82 L 1459.66 1729.86 L 1273.99 1729.88 C 1245.28 1729.88 1207.67 1731 1179.49 1729.76 C 1184.81 1729.07 1197.61 1729.15 1203.47 1729.02 C 1179.37 1705.83 1180.1 1662.93 1206.14 1641.17 L 1223.95 1640.88 C 1235.7 1640.82 1247.44 1640.85 1259.19 1640.97 C 1265.68 1640.99 1269.85 1641.04 1276.31 1640.26 C 1373.16 1641.46 1470.78 1639.56 1567.64 1640.46 C 1605.08 1640.8 1648.63 1639.29 1685.41 1640.59 z"/>
<path transform="translate(0,0)" fill="rgb(45,106,167)" d="M 1685.41 1640.59 L 1706.93 1639.95 L 1707.14 1656.93 C 1702.64 1656.67 1684.97 1655.81 1681.81 1657.03 C 1677.37 1655.92 1655.04 1656.35 1648.8 1656.36 L 1577.47 1656.43 L 1367.6 1656.38 C 1338.88 1656.46 1310.17 1656.06 1281.45 1656.12 C 1275.58 1656.31 1269.4 1657.62 1264.22 1660.53 C 1246.92 1670.24 1248.46 1708.49 1269.93 1712.57 C 1278.32 1714.16 1288.79 1713.74 1297.41 1713.83 C 1304.74 1713.9 1312.38 1713.82 1319.76 1713.81 L 1416 1713.67 L 1597.16 1713.56 C 1622.99 1713.48 1657 1714.41 1681.87 1713.17 C 1687.63 1713.93 1699.6 1713.62 1705.88 1713.56 L 1705.89 1729.28 C 1696.08 1729.11 1686.27 1729.1 1676.47 1729.26 C 1657.07 1730.78 1623.01 1729.8 1602.8 1729.82 L 1459.66 1729.86 L 1273.99 1729.88 C 1245.28 1729.88 1207.67 1731 1179.49 1729.76 C 1184.81 1729.07 1197.61 1729.15 1203.47 1729.02 C 1179.37 1705.83 1180.1 1662.93 1206.14 1641.17 L 1223.95 1640.88 C 1235.7 1640.82 1247.44 1640.85 1259.19 1640.97 C 1265.68 1640.99 1269.85 1641.04 1276.31 1640.26 C 1373.16 1641.46 1470.78 1639.56 1567.64 1640.46 C 1605.08 1640.8 1648.63 1639.29 1685.41 1640.59 z"/>
<path transform="translate(0,0)" fill="rgb(27,27,62)" d="M 1223.95 1640.88 C 1235.7 1640.82 1247.44 1640.85 1259.19 1640.97 C 1246.46 1649.57 1238.38 1658.12 1235.7 1673.89 C 1232.01 1695.53 1237.34 1715 1254.97 1728.81 C 1292.33 1730.38 1336.32 1729.22 1374.34 1729.17 L 1553.94 1729.18 C 1594.28 1729.1 1636.24 1728.42 1676.47 1729.26 C 1657.07 1730.78 1623.01 1729.8 1602.8 1729.82 L 1459.66 1729.86 L 1273.99 1729.88 C 1245.28 1729.88 1207.67 1731 1179.49 1729.76 C 1184.81 1729.07 1197.61 1729.15 1203.47 1729.02 C 1179.37 1705.83 1180.1 1662.93 1206.14 1641.17 L 1223.95 1640.88 z"/>
<path transform="translate(0,0)" fill="rgb(247,248,250)" d="M 1658.03 1621.46 C 1628.59 1622.19 1597.26 1621.68 1567.66 1621.72 L 1395.63 1621.93 L 1325.14 1621.94 C 1314.54 1621.95 1303.39 1621.84 1293.47 1621.69 C 1268.84 1621.31 1261.46 1591.62 1266.67 1571.75 C 1270.56 1556.92 1282.72 1552.31 1294.33 1546.05 C 1302.96 1553.74 1311.66 1561.74 1320.73 1568.88 L 1320.99 1551.07 L 1524.94 1551.03 C 1568.73 1551.04 1613.79 1550.37 1657.46 1551.17 C 1658.75 1571.25 1658.04 1600.92 1658.03 1621.46 z"/>
<path transform="translate(0,0)" fill="rgb(45,106,167)" d="M 1601.08 1507.8 C 1612.22 1507.95 1623.37 1507.97 1634.52 1507.86 C 1634.68 1515.86 1635.1 1524.78 1634.34 1532.67 C 1592.31 1533.59 1548.27 1532.82 1506.11 1532.77 C 1444.45 1532.89 1382.79 1532.7 1321.14 1532.2 C 1320.69 1523.98 1319.86 1516.16 1319.01 1507.99 C 1331.19 1507.7 1343.95 1507.57 1356.13 1507.75 C 1437.62 1508.99 1519.65 1506.59 1601.08 1507.8 z"/>
<path transform="translate(0,0)" fill="rgb(15,17,43)" d="M 573.167 1126.05 C 578.184 1126.35 580.565 1126.52 585.451 1127.58 C 585.207 1131.48 585.777 1132.95 583.958 1135.8 L 580.753 1136.69 C 582.204 1136.95 584.452 1136.84 584.927 1138.11 C 586.807 1143.14 586.285 1149.29 586.63 1154.65 C 590.636 1217 579.286 1242.26 653.996 1216.59 C 659.708 1362.61 653.861 1508.64 649.356 1654.61 C 649.181 1660.3 649.521 1671.74 647.759 1676.6 C 641.336 1676 591.681 1675.65 587.516 1676.94 L 583.996 1676.02 C 581.36 1672.97 582.108 1672.97 581.24 1668.32 C 556.215 1651.01 520.943 1627.18 494.514 1614.06 C 493.293 1623.01 489.127 1671.57 486.099 1675.58 C 483.541 1676.09 483.374 1676.22 480.811 1676.04 C 464.33 1675.65 446.245 1676.06 429.634 1676.08 L 416.845 1675.3 C 418.228 1656.6 416.341 1629.96 415.986 1610.41 C 415.733 1596.54 415.351 1563.77 413.531 1551.01 C 364.329 1510.34 340.377 1440.44 345.636 1378.48 C 348.928 1339.71 375.131 1262.23 403.877 1236.94 C 404.173 1232.14 403.859 1230.81 403.111 1225.96 C 407.16 1224.36 419.128 1227.12 424.012 1227.68 C 523.553 1239.27 510.738 1214.5 518.03 1137.97 C 526.466 1137.88 534.889 1137.88 543.311 1137.36 C 545.916 1139.12 548.368 1143.43 550.219 1146.19 C 553.237 1149.72 552.402 1149.96 555.934 1150.62 C 559.807 1148.55 561.698 1142.64 564.904 1138.45 L 566.103 1136.92 C 567.019 1132.96 570.594 1129.02 573.167 1126.05 z"/>
<path transform="translate(0,0)" fill="rgb(27,27,62)" d="M 543.311 1137.36 C 545.916 1139.12 548.368 1143.43 550.219 1146.19 C 546.416 1150.1 536.408 1232.46 536.057 1245.03 L 535.898 1249.61 C 533.579 1259 531.98 1279.7 530.868 1290.3 L 523.135 1362.59 C 514.129 1445.6 504.964 1531.35 494.514 1614.06 C 493.293 1623.01 489.127 1671.57 486.099 1675.58 C 483.541 1676.09 483.374 1676.22 480.811 1676.04 C 464.33 1675.65 446.245 1676.06 429.634 1676.08 L 416.845 1675.3 C 418.228 1656.6 416.341 1629.96 415.986 1610.41 C 415.733 1596.54 415.351 1563.77 413.531 1551.01 C 364.329 1510.34 340.377 1440.44 345.636 1378.48 C 348.928 1339.71 375.131 1262.23 403.877 1236.94 C 404.173 1232.14 403.859 1230.81 403.111 1225.96 C 407.16 1224.36 419.128 1227.12 424.012 1227.68 C 523.553 1239.27 510.738 1214.5 518.03 1137.97 C 526.466 1137.88 534.889 1137.88 543.311 1137.36 z"/>
<path transform="translate(0,0)" fill="rgb(247,248,250)" d="M 403.877 1236.94 L 413.531 1551.01 C 364.329 1510.34 340.377 1440.44 345.636 1378.48 C 348.928 1339.71 375.131 1262.23 403.877 1236.94 z"/>
<path transform="translate(0,0)" fill="rgb(247,248,250)" d="M 535.898 1249.61 C 542.505 1292.73 549.984 1336.37 555.121 1379.66 C 557.24 1397.51 556.265 1418.05 557.264 1436.25 C 558.441 1457.73 560.48 1478.74 562.634 1500.14 C 566.486 1537.69 570.588 1575.21 574.941 1612.71 C 576.843 1629.34 580.204 1652.24 581.24 1668.32 C 556.215 1651.01 520.943 1627.18 494.514 1614.06 C 504.964 1531.35 514.129 1445.6 523.135 1362.59 L 530.868 1290.3 C 531.98 1279.7 533.579 1259 535.898 1249.61 z"/>
<path transform="translate(0,0)" fill="rgb(247,248,250)" d="M 573.167 1126.05 C 578.184 1126.35 580.565 1126.52 585.451 1127.58 C 585.207 1131.48 585.777 1132.95 583.958 1135.8 L 580.753 1136.69 L 566.103 1136.92 C 567.019 1132.96 570.594 1129.02 573.167 1126.05 z"/>
<path transform="translate(0,0)" fill="rgb(247,133,28)" d="M 1259.38 1531.8 C 1259.39 1537.21 1258.17 1551.73 1254.45 1555.56 C 1243.77 1577.76 1247.32 1613.77 1265.08 1631.46 C 1268.37 1634.73 1272.51 1637.59 1276.31 1640.26 C 1269.85 1641.04 1265.68 1640.99 1259.19 1640.97 C 1247.44 1640.85 1235.7 1640.82 1223.95 1640.88 L 1206.14 1641.17 C 1180.1 1662.93 1179.37 1705.83 1203.47 1729.02 C 1197.61 1729.15 1184.81 1729.07 1179.49 1729.76 C 1148.85 1730.8 1111.33 1729.9 1080.29 1729.89 L 881.833 1729.68 L 799.757 1729.97 C 772.594 1730.1 747.614 1736.39 731.271 1710.51 C 719.215 1677.27 727.829 1638.64 770.704 1640.04 C 778.053 1640.28 786.048 1640.12 793.444 1640 C 808.866 1641.95 842.169 1641.01 859.169 1640.93 C 826.912 1612.61 826.865 1560.7 859.408 1532.7 C 867.299 1532.64 895.636 1531.74 901.399 1532.73 L 1113.11 1532.83 C 1130.76 1533.17 1154.08 1533.29 1171.48 1532.45 C 1192.35 1532.77 1213.23 1532.92 1234.1 1532.89 C 1240.92 1532.76 1251.35 1532.26 1257.89 1532.56 L 1259.38 1531.8 z"/>
<path transform="translate(0,0)" fill="rgb(45,106,167)" d="M 793.444 1640 C 808.866 1641.95 842.169 1641.01 859.169 1640.93 C 872.201 1641.04 888.373 1641.59 901.14 1640.99 L 1098.12 1640.95 C 1132.65 1640.92 1172.11 1639.96 1206.14 1641.17 C 1180.1 1662.93 1179.37 1705.83 1203.47 1729.02 C 1197.61 1729.15 1184.81 1729.07 1179.49 1729.76 C 1148.85 1730.8 1111.33 1729.9 1080.29 1729.89 L 881.833 1729.68 L 799.757 1729.97 C 772.594 1730.1 747.614 1736.39 731.271 1710.51 C 719.215 1677.27 727.829 1638.64 770.704 1640.04 C 778.053 1640.28 786.048 1640.12 793.444 1640 z"/>
<path transform="translate(0,0)" fill="rgb(205,76,16)" d="M 859.408 1532.7 C 867.299 1532.64 895.636 1531.74 901.399 1532.73 C 884.791 1546.19 878.65 1557.93 875.939 1579.18 C 873.363 1599.38 880.573 1632.26 901.14 1640.99 C 888.373 1641.59 872.201 1641.04 859.169 1640.93 C 826.912 1612.61 826.865 1560.7 859.408 1532.7 z"/>
<path transform="translate(0,0)" fill="rgb(205,76,16)" d="M 1259.38 1531.8 C 1259.39 1537.21 1258.17 1551.73 1254.45 1555.56 C 1243.77 1577.76 1247.32 1613.77 1265.08 1631.46 C 1268.37 1634.73 1272.51 1637.59 1276.31 1640.26 C 1269.85 1641.04 1265.68 1640.99 1259.19 1640.97 C 1247.44 1640.85 1235.7 1640.82 1223.95 1640.88 C 1226.89 1640.53 1227.68 1640.43 1230.51 1639.62 C 1230.38 1637.05 1223.68 1632.32 1221.56 1629.14 C 1201.83 1599.38 1203.65 1554.52 1234.1 1532.89 C 1240.92 1532.76 1251.35 1532.26 1257.89 1532.56 L 1259.38 1531.8 z"/>
<path transform="translate(0,0)" fill="rgb(247,133,28)" d="M 1259.38 1531.8 C 1259.39 1537.21 1258.17 1551.73 1254.45 1555.56 C 1252.45 1556.22 1247.27 1560.88 1244.45 1562.59 C 1240.59 1562.87 1242.14 1563.44 1239.45 1561.46 C 1238.09 1553.19 1252.03 1537.9 1257.89 1532.56 L 1259.38 1531.8 z"/>
<path transform="translate(0,0)" fill="rgb(45,106,167)" d="M 862.583 1326.73 C 907.558 1328.55 956.17 1326.01 1001.43 1326.98 C 1013.39 1327.23 1045.54 1326.13 1055.77 1327.69 C 1057.24 1331.06 1057.96 1334.37 1061.95 1335.57 C 1074.33 1339.29 1096.79 1334.58 1109.87 1332.8 C 1065.03 1369.48 1067.18 1480.25 1103 1523.02 C 1105.93 1526.51 1109.79 1529.7 1113.11 1532.83 L 901.399 1532.73 C 895.636 1531.74 867.299 1532.64 859.408 1532.7 L 829.307 1532.62 C 818.547 1533.08 805.547 1532.83 794.619 1532.9 C 742.147 1492.46 743.417 1366.36 798.092 1326.83 C 809.631 1326.83 821.541 1326.68 833.045 1326.88 L 862.583 1326.73 z"/>
<path transform="translate(0,0)" fill="rgb(15,17,43)" d="M 798.092 1326.83 C 809.631 1326.83 821.541 1326.68 833.045 1326.88 C 823.411 1333.68 816.996 1339.25 810.453 1349.27 C 779.56 1396.54 779.164 1497.83 829.307 1532.62 C 818.547 1533.08 805.547 1532.83 794.619 1532.9 C 742.147 1492.46 743.417 1366.36 798.092 1326.83 z"/>
<path transform="translate(0,0)" fill="rgb(247,133,28)" d="M 1017.76 1170.95 C 1031.67 1171.94 1045.41 1170.71 1058.11 1171.73 C 1056.96 1181.19 1051.38 1232.16 1052.79 1238.26 L 1055.07 1239.17 C 1066.24 1238.87 1099.52 1239.79 1110.4 1241.2 C 1108.6 1246.83 1108.65 1248.71 1108.97 1254.66 C 1110.96 1264.35 1112.78 1274.5 1113.26 1284.4 C 1121.23 1279.02 1133.78 1271.47 1132.93 1260.82 C 1148.71 1259.74 1170.83 1260.22 1187.08 1260.08 C 1187.2 1265.28 1187.25 1269.93 1187.76 1275.13 C 1189.48 1285.73 1194.71 1309.52 1188.5 1318.58 C 1185.71 1322.63 1180.86 1323.43 1176.27 1324.46 L 1181.37 1326.86 L 1174.45 1326.82 C 1164.04 1325.8 1151.75 1326.76 1141.17 1327.31 C 1133.61 1330.43 1116.85 1329.37 1109.87 1332.8 C 1096.79 1334.58 1074.33 1339.29 1061.95 1335.57 C 1057.96 1334.37 1057.24 1331.06 1055.77 1327.69 C 1045.54 1326.13 1013.39 1327.23 1001.43 1326.98 C 956.17 1326.01 907.558 1328.55 862.583 1326.73 C 856.472 1323.93 848.72 1320.11 843.696 1315.41 C 809.285 1283.26 811.792 1188.85 862.516 1172.66 C 869.987 1170.28 896.672 1171.02 905.92 1171.02 L 974.75 1171.13 C 987.391 1171.2 1004.15 1171.8 1016.46 1171.04 L 1017.76 1170.95 z"/>
<path transform="translate(0,0)" fill="url(#Gradient1)" d="M 1055.07 1239.17 C 1066.24 1238.87 1099.52 1239.79 1110.4 1241.2 C 1108.6 1246.83 1108.65 1248.71 1108.97 1254.66 C 1110.96 1264.35 1112.78 1274.5 1113.26 1284.4 C 1121.23 1279.02 1133.78 1271.47 1132.93 1260.82 C 1148.71 1259.74 1170.83 1260.22 1187.08 1260.08 C 1187.2 1265.28 1187.25 1269.93 1187.76 1275.13 C 1189.48 1285.73 1194.71 1309.52 1188.5 1318.58 C 1185.71 1322.63 1180.86 1323.43 1176.27 1324.46 L 1181.37 1326.86 L 1174.45 1326.82 C 1164.04 1325.8 1151.75 1326.76 1141.17 1327.31 C 1133.61 1330.43 1116.85 1329.37 1109.87 1332.8 C 1096.79 1334.58 1074.33 1339.29 1061.95 1335.57 C 1057.96 1334.37 1057.24 1331.06 1055.77 1327.69 L 1058.5 1321.83 C 1065.22 1312.7 1073.32 1308.86 1082.89 1303.22 C 1081.24 1302.07 1078.6 1299.72 1076.61 1300.59 C 1060.52 1307.61 988.658 1326.84 977.043 1311.91 C 973.387 1298.03 1008.87 1281.16 1019.81 1274.43 C 1030.18 1267.7 1055.2 1252.98 1055.07 1239.17 z"/>
<path transform="translate(0,0)" fill="rgb(244,157,150)" d="M 1055.07 1239.17 C 1066.24 1238.87 1099.52 1239.79 1110.4 1241.2 C 1108.6 1246.83 1108.65 1248.71 1108.97 1254.66 C 1093.92 1264.82 1077.06 1273.17 1060.17 1279.86 C 1046.33 1285.34 1026.8 1292.96 1019.81 1274.43 C 1030.18 1267.7 1055.2 1252.98 1055.07 1239.17 z"/>
<path transform="translate(0,0)" fill="rgb(244,157,150)" d="M 1132.93 1260.82 C 1148.71 1259.74 1170.83 1260.22 1187.08 1260.08 C 1187.2 1265.28 1187.25 1269.93 1187.76 1275.13 C 1167.78 1288.01 1144.22 1299.94 1120.78 1305.97 C 1113.13 1307.94 1099.79 1305.48 1099.55 1295.52 C 1104.03 1290.21 1110.33 1288.77 1113.26 1284.4 C 1121.23 1279.02 1133.78 1271.47 1132.93 1260.82 z"/>
<path transform="translate(0,0)" fill="rgb(209,132,72)" d="M 1158.16 1318.15 C 1164.2 1326.39 1167.08 1325.2 1176.27 1324.46 L 1181.37 1326.86 L 1174.45 1326.82 C 1164.04 1325.8 1151.75 1326.76 1141.17 1327.31 L 1140.75 1326.15 C 1143.65 1323.84 1154.21 1319.79 1158.16 1318.15 z"/>
<path transform="translate(0,0)" fill="rgb(25,18,20)" d="M 1058.5 1321.83 C 1065.22 1312.7 1073.32 1308.86 1082.89 1303.22 C 1079.25 1311.14 1067.15 1320.87 1058.5 1321.83 z"/>
<path transform="translate(0,0)" fill="rgb(45,106,167)" d="M 793.83 1532.98 C 781.782 1532.78 719.294 1534.33 710.462 1531.39 C 648.002 1509.82 650.154 1347.82 712.027 1328.35 C 719.361 1326.05 785.629 1326.84 798.092 1326.83 C 743.417 1366.36 742.147 1492.46 794.619 1532.9 L 793.83 1532.98 z"/>
<path transform="translate(0,0)" fill="rgb(247,133,28)" d="M 829.307 1532.62 L 859.408 1532.7 C 826.865 1560.7 826.912 1612.61 859.169 1640.93 C 842.169 1641.01 808.866 1641.95 793.444 1640 C 783 1634.81 775.263 1629.7 769.509 1619.24 C 757.767 1597.91 758.675 1567.64 773.536 1548.03 C 778.778 1541.11 786.504 1537 793.83 1532.98 L 794.619 1532.9 C 805.547 1532.83 818.547 1533.08 829.307 1532.62 z"/>
<path transform="translate(0,0)" fill="rgb(45,106,167)" d="M 1019.84 1062.21 C 1035.96 1063.26 1053.13 1062.45 1069.48 1062.52 C 1067.24 1075.4 1066.25 1091.25 1064.91 1104.59 L 1058.11 1171.73 C 1045.41 1170.71 1031.67 1171.94 1017.76 1170.95 C 985.846 1157.31 978.618 1126.23 987.926 1094.46 C 993.525 1075.35 1003.31 1070.49 1019.84 1062.21 z"/>
<path transform="translate(0,0)" fill="rgb(15,17,43)" d="M 587.516 1676.94 C 591.681 1675.65 641.336 1676 647.759 1676.6 C 648.398 1681.57 648.549 1681.87 652.797 1685.12 C 664.462 1688.17 713.486 1710.8 720.833 1718.37 L 721.037 1719.35 C 721.853 1723.37 722.697 1726.03 720.51 1729.33 C 712.082 1731.56 690.646 1729.68 680.869 1729.89 C 649.48 1730.57 615.119 1728.61 583.93 1730.09 C 583.391 1714.52 584.829 1701.61 587.687 1686.4 C 589.485 1681.91 589.406 1681.03 587.516 1676.94 z"/>
<path transform="translate(0,0)" fill="rgb(244,157,150)" d="M 587.516 1676.94 C 591.681 1675.65 641.336 1676 647.759 1676.6 C 648.398 1681.57 648.549 1681.87 652.797 1685.12 C 627.072 1698.86 613.762 1699.69 587.687 1686.4 C 589.485 1681.91 589.406 1681.03 587.516 1676.94 z"/>
<path transform="translate(0,0)" fill="rgb(27,27,62)" d="M 1305.64 397.781 C 1363.39 384.514 1407.57 411.412 1406.08 472.149 C 1405.83 482.515 1402.41 500.114 1404.95 509.323 C 1464.26 528.815 1524.01 569.983 1562.73 618.995 C 1596.47 659.55 1617.31 710.035 1626.01 761.824 C 1627.23 769.09 1626 778.004 1626.6 785.715 C 1631.29 845.422 1626.98 908.843 1627.16 968.472 C 1628.69 975.837 1628.82 1041.03 1627.45 1048.91 C 1627.19 1052.86 1626.99 1056.81 1626.85 1060.76 C 1651.99 1059.98 1677.18 1061.4 1702.33 1060.95 C 1707.93 1060.85 1717.33 1059.74 1721.94 1062.91 C 1722.99 1065.28 1722.62 1065.79 1722.38 1068.46 C 1719.02 1070.85 1695 1070.01 1688.94 1070 C 1688.94 1083.12 1689.19 1097.08 1688.91 1110.13 C 1693.56 1113.46 1710.95 1109.64 1716.73 1111.7 C 1717.6 1115.05 1718.03 1115.74 1717.08 1119.14 C 1710.22 1126.04 1697.22 1119.12 1689.47 1122.73 C 1690.29 1135.61 1690.05 1149.01 1690.05 1161.95 C 1696.95 1161.84 1715.52 1161.29 1721.46 1162.35 C 1722.3 1166.28 1722.17 1167.14 1722.03 1171.23 C 1726.78 1171.79 1726.61 1170.99 1729.58 1173.55 C 1730.32 1177.23 1730.15 1179.02 1730.07 1182.71 C 1717.25 1182.82 1703.06 1183.22 1690.34 1182.89 C 1690.23 1199.37 1689.65 1221.88 1690.39 1238.03 L 1690.74 1238.93 C 1699.59 1260.68 1713.5 1277.85 1717.34 1302.1 C 1718.93 1312.09 1719.14 1316.26 1729.12 1316.01 C 1731.71 1318.42 1730.65 1316.93 1731.32 1321.37 C 1729.6 1325.82 1728.86 1325.53 1724.5 1328.68 C 1725.11 1334.5 1726.08 1340.45 1726.95 1346.26 C 1730.82 1372.12 1731.11 1397.95 1732.06 1424.02 C 1722.99 1416.86 1710.23 1407.35 1701.91 1399.63 C 1692.27 1408.16 1680.11 1417.27 1669.84 1425.89 C 1669.25 1390.36 1668.36 1362.07 1664.69 1326.9 C 1654.52 1326.1 1644.99 1326.63 1634.83 1327 C 1615.65 1328.44 1578.31 1327.25 1557.71 1327.24 L 1402.95 1327.18 C 1392.09 1327.97 1370.82 1327.09 1359.2 1326.97 L 1302.76 1327.08 C 1288.47 1327.45 1272.49 1327.03 1258.07 1326.97 L 1181.37 1326.86 L 1176.27 1324.46 C 1180.86 1323.43 1185.71 1322.63 1188.5 1318.58 C 1194.71 1309.52 1189.48 1285.73 1187.76 1275.13 C 1187.25 1269.93 1187.2 1265.28 1187.08 1260.08 C 1170.83 1260.22 1148.71 1259.74 1132.93 1260.82 C 1133.78 1271.47 1121.23 1279.02 1113.26 1284.4 C 1112.78 1274.5 1110.96 1264.35 1108.97 1254.66 C 1108.65 1248.71 1108.6 1246.83 1110.4 1241.2 C 1099.52 1239.79 1066.24 1238.87 1055.07 1239.17 L 1052.79 1238.26 C 1051.38 1232.16 1056.96 1181.19 1058.11 1171.73 L 1064.91 1104.59 C 1066.25 1091.25 1067.24 1075.4 1069.48 1062.52 C 1070.44 1058.6 1071.62 1037.57 1072.18 1031.96 L 1080.29 956.995 C 1081.18 952.402 1081.92 944.658 1082.54 939.792 C 1082.92 938.639 1084.08 930.595 1084.36 928.887 L 1086.64 916.81 C 1087.88 912.581 1089.14 908.358 1090.43 904.143 C 1092.27 899.089 1094.22 895.92 1096.82 891.266 C 1100.23 886.996 1102.66 884.461 1106.42 880.642 C 1130.43 862.222 1177.29 846.533 1206.76 837.759 C 1205.88 815.005 1207.12 791.775 1206.22 768.786 C 1194.81 777.32 1189.54 781.754 1175.28 784.443 C 1171.5 783.737 1167.55 782.545 1163.8 781.531 C 1156.59 778.262 1152.09 774.637 1146.09 769.704 L 1136.81 759.075 C 1126.65 746.57 1118.82 734.292 1110.37 720.676 C 1108.47 717.012 1105.82 712.687 1103.73 709.035 C 1101.9 705.236 1099.7 701.557 1097.61 697.889 C 1095.38 693.209 1093.25 689.421 1090.7 684.95 L 1084.15 672.659 L 1078.46 661.397 C 1076.51 657.196 1074.15 653.147 1071.89 649.092 C 1069.66 644.618 1069.61 643.653 1071.29 639.083 L 1073.71 637.98 L 1099.78 617.814 C 1109.08 622.975 1118.45 632.368 1126.34 639.77 L 1138.18 650.383 L 1151.31 661.743 C 1154.69 664.808 1161.49 671.326 1164.86 673.825 L 1174.29 682.242 L 1176.59 679.456 C 1186.31 666.417 1196.18 653.502 1206.22 640.715 C 1215.35 630.191 1224.4 618.915 1233.28 608.124 L 1233.5 597.993 L 1234.71 596.863 C 1234.32 595.343 1232.08 590.465 1231.34 587.82 C 1227.4 573.577 1228.28 563.831 1232.44 550.178 C 1237.26 542.524 1247.94 525.963 1250.06 517.974 C 1256.88 492.2 1248.74 466.066 1259.32 439.448 C 1266.21 422.318 1279.66 408.65 1296.68 401.482 C 1299.61 400.169 1302.65 398.986 1305.64 397.781 z"/>
<path transform="translate(0,0)" fill="rgb(247,133,28)" d="M 1305.64 397.781 C 1363.39 384.514 1407.57 411.412 1406.08 472.149 C 1405.83 482.515 1402.41 500.114 1404.95 509.323 C 1464.26 528.815 1524.01 569.983 1562.73 618.995 C 1596.47 659.55 1617.31 710.035 1626.01 761.824 C 1627.23 769.09 1626 778.004 1626.6 785.715 C 1631.29 845.422 1626.98 908.843 1627.16 968.472 L 1626.25 968.41 L 1626.12 956.91 L 1427.62 957.067 C 1486.95 928.965 1470.02 863.525 1442.2 818.41 C 1435.77 819.19 1423.75 820.735 1417.48 819.799 C 1417.31 816.994 1417.74 815.598 1414.35 814.833 C 1398.48 811.247 1377.12 812.301 1362 806.8 C 1349.01 804.597 1322.34 812.334 1305.57 803.382 C 1288.92 794.492 1290.26 777.067 1285.13 761.836 L 1284.59 760.268 L 1264.93 818.128 C 1262.04 826.552 1255.97 845.021 1252.16 852.394 C 1251.04 851.464 1247.66 849.009 1247.39 847.904 C 1246.03 842.239 1251.49 831.85 1253.5 826.502 L 1249.08 826.114 C 1244.36 827.265 1239.39 828.385 1234.73 829.69 C 1225.99 832.117 1215.17 834.825 1206.76 837.759 C 1205.88 815.005 1207.12 791.775 1206.22 768.786 C 1194.81 777.32 1189.54 781.754 1175.28 784.443 C 1171.5 783.737 1167.55 782.545 1163.8 781.531 C 1156.59 778.262 1152.09 774.637 1146.09 769.704 L 1136.81 759.075 C 1126.65 746.57 1118.82 734.292 1110.37 720.676 C 1108.47 717.012 1105.82 712.687 1103.73 709.035 C 1101.9 705.236 1099.7 701.557 1097.61 697.889 C 1095.38 693.209 1093.25 689.421 1090.7 684.95 L 1084.15 672.659 L 1078.46 661.397 C 1076.51 657.196 1074.15 653.147 1071.89 649.092 C 1069.66 644.618 1069.61 643.653 1071.29 639.083 L 1073.71 637.98 L 1099.78 617.814 C 1109.08 622.975 1118.45 632.368 1126.34 639.77 L 1138.18 650.383 L 1151.31 661.743 C 1154.69 664.808 1161.49 671.326 1164.86 673.825 L 1174.29 682.242 L 1176.59 679.456 C 1186.31 666.417 1196.18 653.502 1206.22 640.715 C 1215.35 630.191 1224.4 618.915 1233.28 608.124 L 1233.5 597.993 L 1234.71 596.863 C 1234.32 595.343 1232.08 590.465 1231.34 587.82 C 1227.4 573.577 1228.28 563.831 1232.44 550.178 C 1237.26 542.524 1247.94 525.963 1250.06 517.974 C 1256.88 492.2 1248.74 466.066 1259.32 439.448 C 1266.21 422.318 1279.66 408.65 1296.68 401.482 C 1299.61 400.169 1302.65 398.986 1305.64 397.781 z"/>
<path transform="translate(0,0)" fill="rgb(247,248,250)" d="M 1404.95 509.323 C 1464.26 528.815 1524.01 569.983 1562.73 618.995 C 1596.47 659.55 1617.31 710.035 1626.01 761.824 C 1627.23 769.09 1626 778.004 1626.6 785.715 C 1631.29 845.422 1626.98 908.843 1627.16 968.472 L 1626.25 968.41 L 1626.12 956.91 L 1427.62 957.067 C 1486.95 928.965 1470.02 863.525 1442.2 818.41 C 1468.45 817.925 1501.1 825.848 1525.81 806.942 C 1532.78 801.608 1538.43 790.381 1538.58 781.957 C 1539.56 726.962 1488.22 649.105 1454.96 608.28 C 1468.82 551.902 1411.38 555.439 1404.95 509.323 z"/>
<path transform="translate(0,0)" fill="rgb(27,27,62)" d="M 1305.64 397.781 C 1363.39 384.514 1407.57 411.412 1406.08 472.149 C 1405.83 482.515 1402.41 500.114 1404.95 509.323 C 1411.38 555.439 1468.82 551.902 1454.96 608.28 C 1426.61 579.72 1404.47 573.461 1363.28 572.741 C 1357.08 589.911 1324.51 604.159 1309.83 589.686 C 1304.63 584.56 1305.67 579.325 1305.99 572.709 C 1285.18 574.56 1266.14 578.213 1249.51 592.082 C 1246.39 594.691 1241.5 600.593 1238.41 601.577 C 1236.79 599.733 1236.01 598.927 1234.71 596.863 C 1234.32 595.343 1232.08 590.465 1231.34 587.82 C 1227.4 573.577 1228.28 563.831 1232.44 550.178 C 1237.26 542.524 1247.94 525.963 1250.06 517.974 C 1256.88 492.2 1248.74 466.066 1259.32 439.448 C 1266.21 422.318 1279.66 408.65 1296.68 401.482 C 1299.61 400.169 1302.65 398.986 1305.64 397.781 z"/>
<path transform="translate(0,0)" fill="rgb(244,157,150)" d="M 1309.46 434.656 C 1316.96 462.365 1331.72 476.996 1359.29 485.442 C 1385.22 475.004 1385.63 506.193 1362.76 512.457 L 1361.77 512.718 C 1361.81 531.941 1362.02 553.435 1363.28 572.741 C 1357.08 589.911 1324.51 604.159 1309.83 589.686 C 1304.63 584.56 1305.67 579.325 1305.99 572.709 L 1306.94 568.638 C 1306.71 562.94 1307.45 557.593 1308.06 551.942 C 1273.16 549.613 1273.1 493.53 1274.13 468.332 C 1285.79 456.461 1299.33 447.11 1309.46 434.656 z"/>
<path transform="translate(0,0)" fill="rgb(225,111,109)" d="M 1350.24 533.196 C 1342.8 554.202 1328.95 565.485 1306.94 568.638 C 1306.71 562.94 1307.45 557.593 1308.06 551.942 C 1328.43 548.729 1334.14 546.29 1350.24 533.196 z"/>
<path transform="translate(0,0)" fill="rgb(45,106,167)" d="M 1319.77 658.759 C 1336.18 660.998 1358.46 662.021 1375.34 663.433 C 1403.86 665.819 1434.06 668.67 1462.57 669.995 C 1466.29 670.988 1466.72 670.395 1468.66 672.807 C 1467.81 677.359 1466.32 681.086 1464.78 685.409 C 1457.2 706.595 1448.91 727.767 1442.86 749.446 C 1425.39 752.895 1407.89 756.172 1390.37 759.276 C 1383.48 760.543 1368.98 762.889 1362.63 764.974 C 1363.04 776.648 1361.93 793.657 1362 806.8 C 1349.01 804.597 1322.34 812.334 1305.57 803.382 C 1288.92 794.492 1290.26 777.067 1285.13 761.836 L 1284.59 760.268 C 1284.83 758.438 1285.56 756.976 1286.23 755.22 C 1288.01 751.187 1289.4 746.953 1290.88 742.804 C 1300.86 714.911 1309.6 686.583 1319.77 658.759 z"/>
<path transform="translate(0,0)" fill="rgb(244,157,150)" d="M 1331.14 762.523 L 1323.12 754.568 C 1319.2 750.705 1316.59 747.25 1315.31 741.82 L 1316.52 740.29 C 1329.01 739.367 1353.06 760.21 1362.63 764.974 C 1363.04 776.648 1361.93 793.657 1362 806.8 C 1349.01 804.597 1322.34 812.334 1305.57 803.382 C 1288.92 794.492 1290.26 777.067 1285.13 761.836 L 1284.59 760.268 C 1284.83 758.438 1285.56 756.976 1286.23 755.22 C 1304.78 761.101 1311.53 763.667 1331.14 762.523 z"/>
<path transform="translate(0,0)" fill="rgb(247,248,250)" d="M 1312.89 651.79 C 1359.97 653.528 1409.61 661.316 1456.9 663.337 C 1459.07 663.429 1461.46 668.183 1462.57 669.995 C 1434.06 668.67 1403.86 665.819 1375.34 663.433 C 1358.46 662.021 1336.18 660.998 1319.77 658.759 C 1309.6 686.583 1300.86 714.911 1290.88 742.804 C 1289.4 746.953 1288.01 751.187 1286.23 755.22 C 1285.56 756.976 1284.83 758.438 1284.59 760.268 L 1264.93 818.128 C 1262.04 826.552 1255.97 845.021 1252.16 852.394 C 1251.04 851.464 1247.66 849.009 1247.39 847.904 C 1246.03 842.239 1251.49 831.85 1253.5 826.502 C 1256.18 816.305 1267.46 786.629 1271.5 774.804 C 1285.82 733.977 1299.62 692.969 1312.89 651.79 z"/>
<path transform="translate(0,0)" fill="rgb(45,106,167)" d="M 1206.22 768.786 C 1216.17 760.197 1223.55 753.321 1232.85 744.144 C 1232.62 764.631 1231.7 805.314 1233.1 828 C 1233.65 828.563 1234.19 829.127 1234.73 829.69 C 1225.99 832.117 1215.17 834.825 1206.76 837.759 C 1205.88 815.005 1207.12 791.775 1206.22 768.786 z"/>
<path transform="translate(0,0)" fill="rgb(247,248,250)" d="M 1244.04 733.435 C 1248.66 753.956 1250.77 770.905 1250.39 792.137 C 1250.19 802.964 1248.82 815.712 1249.08 826.114 C 1244.36 827.265 1239.39 828.385 1234.73 829.69 C 1234.19 829.127 1233.65 828.563 1233.1 828 C 1231.7 805.314 1232.62 764.631 1232.85 744.144 L 1235.18 741.131 C 1237.68 739.328 1241.6 735.607 1244.04 733.435 z"/>
<path transform="translate(0,0)" fill="rgb(205,76,16)" d="M 1235.18 741.131 C 1228.97 712.532 1229.6 682.87 1237.04 654.566 C 1237.16 673.931 1233.52 691.581 1239.83 710.599 C 1241.66 716.117 1246.32 728.42 1244.04 733.435 C 1241.6 735.607 1237.68 739.328 1235.18 741.131 z"/>
<path transform="translate(0,0)" fill="rgb(205,76,16)" d="M 1174.29 682.242 L 1176.59 679.456 C 1184.42 690.044 1183.91 705.001 1187.02 717.497 L 1186.46 718.432 C 1183.3 714.719 1179.62 692.14 1174.29 682.242 z"/>
<path transform="translate(0,0)" fill="rgb(205,76,16)" d="M 1470.9 743.5 C 1477.59 742.827 1481.68 742.788 1488.33 743.587 C 1484.72 744.84 1470.4 745.917 1465.97 746.341 C 1460.69 747.102 1458.01 747.647 1452.58 747.206 L 1452.35 746.414 C 1458.36 744.118 1464.48 744.018 1470.9 743.5 z"/>
<path transform="translate(0,0)" fill="rgb(247,133,28)" d="M 1722.03 1171.23 C 1726.78 1171.79 1726.61 1170.99 1729.58 1173.55 C 1730.32 1177.23 1730.15 1179.02 1730.07 1182.71 C 1717.25 1182.82 1703.06 1183.22 1690.34 1182.89 C 1690.23 1199.37 1689.65 1221.88 1690.39 1238.03 L 1690.74 1238.93 C 1699.59 1260.68 1713.5 1277.85 1717.34 1302.1 C 1718.93 1312.09 1719.14 1316.26 1729.12 1316.01 C 1731.71 1318.42 1730.65 1316.93 1731.32 1321.37 C 1729.6 1325.82 1728.86 1325.53 1724.5 1328.68 C 1725.11 1334.5 1726.08 1340.45 1726.95 1346.26 C 1730.82 1372.12 1731.11 1397.95 1732.06 1424.02 C 1722.99 1416.86 1710.23 1407.35 1701.91 1399.63 C 1692.27 1408.16 1680.11 1417.27 1669.84 1425.89 C 1669.25 1390.36 1668.36 1362.07 1664.69 1326.9 C 1654.52 1326.1 1644.99 1326.63 1634.83 1327 C 1615.65 1328.44 1578.31 1327.25 1557.71 1327.24 L 1402.95 1327.18 C 1392.09 1327.97 1370.82 1327.09 1359.2 1326.97 L 1302.76 1327.08 C 1288.47 1327.45 1272.49 1327.03 1258.07 1326.97 L 1181.37 1326.86 L 1176.27 1324.46 C 1180.86 1323.43 1185.71 1322.63 1188.5 1318.58 C 1194.71 1309.52 1189.48 1285.73 1187.76 1275.13 C 1187.25 1269.93 1187.2 1265.28 1187.08 1260.08 C 1190.06 1260.13 1192.28 1260.54 1194.82 1259.1 C 1196.82 1254.53 1198.23 1249.78 1199.61 1244.98 C 1206.64 1220.54 1214.5 1196.29 1220.75 1171.62 L 1258.41 1171.75 C 1268.63 1171.33 1292.99 1170.72 1302.66 1171.73 C 1321.31 1171.48 1339.97 1171.53 1358.63 1171.89 C 1370.24 1171.62 1381.52 1172.16 1393.37 1171.73 L 1403.23 1172.16 L 1429.14 1171.12 C 1492.27 1171.83 1555.4 1171.95 1618.53 1171.49 C 1650.43 1171.45 1691.27 1172.64 1722.03 1171.23 z"/>
<path transform="translate(0,0)" fill="rgb(247,248,250)" d="M 1658.84 1315.75 L 1656.73 1315.8 C 1603.98 1316.55 1549.97 1315.99 1497.16 1316 L 1446.61 1316.03 C 1436.67 1316.03 1425.39 1316.42 1415.64 1315.17 C 1407.18 1314.09 1401.74 1312.36 1395.7 1306.22 C 1382.76 1293.06 1380.93 1269.82 1380.89 1252.31 C 1380.86 1233.38 1381.73 1206.37 1396.34 1192.32 C 1400.16 1188.64 1407.78 1183.84 1413.07 1183.27 C 1425.77 1181.89 1439.77 1182.09 1452.54 1182.22 L 1507.46 1182.68 C 1567.94 1182.82 1630 1181.83 1690.34 1182.89 C 1690.23 1199.37 1689.65 1221.88 1690.39 1238.03 C 1687.61 1238.48 1677.25 1225.91 1671.55 1224.33 C 1654.29 1219.53 1626.37 1221.9 1608.15 1222.09 C 1605.38 1222.59 1601.39 1223.2 1598.76 1223.83 C 1614.23 1228.53 1627.13 1240.79 1634.28 1255.2 L 1637.07 1259.98 C 1646.41 1274.55 1653.69 1298.94 1658.84 1315.75 z"/>
<path transform="translate(0,0)" fill="rgb(209,132,72)" d="M 1637.07 1259.98 C 1621.17 1260.02 1501.72 1260.72 1493.17 1257.85 C 1504.33 1256.22 1516.85 1256.12 1528.18 1256.11 C 1563.53 1256.11 1598.95 1254.79 1634.28 1255.2 L 1637.07 1259.98 z"/>
<path transform="translate(0,0)" fill="rgb(215,203,193)" d="M 1572.9 1223.53 C 1583.87 1221.76 1597.03 1221.69 1608.15 1222.09 C 1605.38 1222.59 1601.39 1223.2 1598.76 1223.83 C 1593.71 1224.56 1578.69 1223.75 1572.9 1223.53 z"/>
<path transform="translate(0,0)" fill="rgb(27,27,62)" d="M 1420.14 1225.31 C 1435.49 1225.7 1451.48 1225.41 1466.88 1225.33 L 1466.88 1275.1 L 1420.14 1275.08 L 1420.14 1225.31 z"/>
<path transform="translate(0,0)" fill="rgb(205,76,16)" d="M 1220.75 1171.62 L 1258.41 1171.75 C 1268.63 1171.33 1292.99 1170.72 1302.66 1171.73 C 1270.09 1206.63 1266.51 1268.39 1289.31 1310.34 C 1292.22 1315.7 1299.15 1321.92 1302.76 1327.08 C 1288.47 1327.45 1272.49 1327.03 1258.07 1326.97 L 1181.37 1326.86 L 1176.27 1324.46 C 1180.86 1323.43 1185.71 1322.63 1188.5 1318.58 C 1194.71 1309.52 1189.48 1285.73 1187.76 1275.13 C 1187.25 1269.93 1187.2 1265.28 1187.08 1260.08 C 1190.06 1260.13 1192.28 1260.54 1194.82 1259.1 C 1196.82 1254.53 1198.23 1249.78 1199.61 1244.98 C 1206.64 1220.54 1214.5 1196.29 1220.75 1171.62 z"/>
<path transform="translate(0,0)" fill="rgb(247,133,28)" d="M 1220.75 1171.62 L 1258.41 1171.75 C 1222.91 1206.11 1225.08 1290.45 1258.07 1326.97 L 1181.37 1326.86 L 1176.27 1324.46 C 1180.86 1323.43 1185.71 1322.63 1188.5 1318.58 C 1194.71 1309.52 1189.48 1285.73 1187.76 1275.13 C 1187.25 1269.93 1187.2 1265.28 1187.08 1260.08 C 1190.06 1260.13 1192.28 1260.54 1194.82 1259.1 C 1196.82 1254.53 1198.23 1249.78 1199.61 1244.98 C 1206.64 1220.54 1214.5 1196.29 1220.75 1171.62 z"/>
<path transform="translate(0,0)" fill="rgb(247,133,28)" d="M 1302.66 1171.73 C 1321.31 1171.48 1339.97 1171.53 1358.63 1171.89 C 1339.2 1188.41 1332.79 1210.65 1330.43 1235.48 C 1327.96 1261.49 1331.33 1296.34 1349.3 1316.77 C 1352.09 1319.94 1356.15 1323.79 1359.2 1326.97 L 1302.76 1327.08 C 1299.15 1321.92 1292.22 1315.7 1289.31 1310.34 C 1266.51 1268.39 1270.09 1206.63 1302.66 1171.73 z"/>
<path transform="translate(0,0)" fill="rgb(205,76,16)" d="M 1393.37 1171.73 L 1403.23 1172.16 C 1371.81 1190.17 1369.68 1230.93 1370.92 1263.13 C 1371.51 1278.45 1375.73 1293.99 1382.65 1307.64 C 1386.82 1315.84 1396.47 1321.15 1402.95 1327.18 C 1392.09 1327.97 1370.82 1327.09 1359.2 1326.97 C 1356.15 1323.79 1352.09 1319.94 1349.3 1316.77 C 1331.33 1296.34 1327.96 1261.49 1330.43 1235.48 C 1332.79 1210.65 1339.2 1188.41 1358.63 1171.89 C 1370.24 1171.62 1381.52 1172.16 1393.37 1171.73 z"/>
<path transform="translate(0,0)" fill="rgb(247,248,250)" d="M 1626.25 968.41 L 1627.16 968.472 C 1628.69 975.837 1628.82 1041.03 1627.45 1048.91 C 1627.19 1052.86 1626.99 1056.81 1626.85 1060.76 C 1651.99 1059.98 1677.18 1061.4 1702.33 1060.95 C 1707.93 1060.85 1717.33 1059.74 1721.94 1062.91 C 1722.99 1065.28 1722.62 1065.79 1722.38 1068.46 C 1719.02 1070.85 1695 1070.01 1688.94 1070 C 1688.94 1083.12 1689.19 1097.08 1688.91 1110.13 C 1693.56 1113.46 1710.95 1109.64 1716.73 1111.7 C 1717.6 1115.05 1718.03 1115.74 1717.08 1119.14 C 1710.22 1126.04 1697.22 1119.12 1689.47 1122.73 C 1690.29 1135.61 1690.05 1149.01 1690.05 1161.95 C 1696.95 1161.84 1715.52 1161.29 1721.46 1162.35 C 1722.3 1166.28 1722.17 1167.14 1722.03 1171.23 C 1691.27 1172.64 1650.43 1171.45 1618.53 1171.49 C 1555.4 1171.95 1492.27 1171.83 1429.14 1171.12 L 1403.23 1172.16 L 1393.37 1171.73 C 1381.52 1172.16 1370.24 1171.62 1358.63 1171.89 C 1339.97 1171.53 1321.31 1171.48 1302.66 1171.73 C 1292.99 1170.72 1268.63 1171.33 1258.41 1171.75 L 1220.75 1171.62 C 1227 1147.13 1234.21 1122.96 1239.57 1098.17 C 1240.95 1091.82 1246.45 1064.88 1248.85 1062.13 L 1249.66 1062.07 C 1258.87 1048.63 1263.18 1017.19 1275.19 1001.99 C 1286.25 987.989 1302.7 985.108 1319.34 982.612 L 1323.02 977.196 C 1336.56 966.999 1420.59 969.423 1438.95 969.429 L 1573.76 969.122 C 1582.62 969.108 1619.29 970.035 1626.25 968.41 z"/>
<path transform="translate(0,0)" fill="rgb(247,248,250)" d="M 1627.45 1048.91 C 1627.19 1052.86 1626.99 1056.81 1626.85 1060.76 C 1651.99 1059.98 1677.18 1061.4 1702.33 1060.95 C 1707.93 1060.85 1717.33 1059.74 1721.94 1062.91 C 1722.99 1065.28 1722.62 1065.79 1722.38 1068.46 C 1719.02 1070.85 1695 1070.01 1688.94 1070 C 1688.94 1083.12 1689.19 1097.08 1688.91 1110.13 C 1693.56 1113.46 1710.95 1109.64 1716.73 1111.7 C 1717.6 1115.05 1718.03 1115.74 1717.08 1119.14 C 1710.22 1126.04 1697.22 1119.12 1689.47 1122.73 C 1690.29 1135.61 1690.05 1149.01 1690.05 1161.95 C 1696.95 1161.84 1715.52 1161.29 1721.46 1162.35 C 1722.3 1166.28 1722.17 1167.14 1722.03 1171.23 C 1691.27 1172.64 1650.43 1171.45 1618.53 1171.49 C 1555.4 1171.95 1492.27 1171.83 1429.14 1171.12 C 1404.48 1154.98 1401.39 1112.59 1410.36 1086.92 C 1414.24 1075.8 1420.01 1068.83 1429.35 1062.12 C 1443.86 1060.77 1467.28 1061.5 1482.53 1061.56 L 1569.67 1061.84 C 1587.67 1061.87 1608.4 1062.33 1626.2 1061.12 L 1625.99 1049.06 L 1627.45 1048.91 z"/>
<path transform="translate(0,0)" fill="rgb(45,106,167)" d="M 1627.45 1048.91 C 1627.19 1052.86 1626.99 1056.81 1626.85 1060.76 C 1651.99 1059.98 1677.18 1061.4 1702.33 1060.95 C 1707.93 1060.85 1717.33 1059.74 1721.94 1062.91 C 1722.99 1065.28 1722.62 1065.79 1722.38 1068.46 C 1719.02 1070.85 1695 1070.01 1688.94 1070 C 1636.03 1070.34 1583.13 1070.41 1530.22 1070.2 C 1507.21 1070.16 1477.95 1069.17 1455.41 1071.23 C 1438.05 1072.82 1431.72 1103.71 1433.48 1117.63 C 1433.93 1133.83 1437.65 1160.27 1458.3 1161.4 C 1483.07 1162.76 1508.74 1162.12 1533.77 1162.11 L 1690.05 1161.95 C 1696.95 1161.84 1715.52 1161.29 1721.46 1162.35 C 1722.3 1166.28 1722.17 1167.14 1722.03 1171.23 C 1691.27 1172.64 1650.43 1171.45 1618.53 1171.49 C 1555.4 1171.95 1492.27 1171.83 1429.14 1171.12 C 1404.48 1154.98 1401.39 1112.59 1410.36 1086.92 C 1414.24 1075.8 1420.01 1068.83 1429.35 1062.12 C 1443.86 1060.77 1467.28 1061.5 1482.53 1061.56 L 1569.67 1061.84 C 1587.67 1061.87 1608.4 1062.33 1626.2 1061.12 L 1625.99 1049.06 L 1627.45 1048.91 z"/>
<path transform="translate(0,0)" fill="rgb(169,185,211)" d="M 1689.47 1122.73 C 1686.2 1118.36 1570.09 1122.9 1554 1121.79 C 1551.36 1121.61 1549.51 1120.97 1547.27 1119.6 C 1545.26 1116.05 1545.87 1117.23 1545.95 1112.62 C 1546.4 1112.19 1546.85 1111.77 1547.3 1111.34 C 1585.23 1110.6 1623.26 1111.1 1661.21 1110.93 C 1666.06 1110.91 1685.78 1111.48 1688.91 1110.13 C 1693.56 1113.46 1710.95 1109.64 1716.73 1111.7 C 1717.6 1115.05 1718.03 1115.74 1717.08 1119.14 C 1710.22 1126.04 1697.22 1119.12 1689.47 1122.73 z"/>
<path transform="translate(0,0)" fill="rgb(45,106,167)" d="M 1249.66 1062.07 C 1297.44 1062.88 1345.9 1061.58 1393.74 1062.03 C 1363.43 1088.38 1366.68 1141 1391.94 1170.14 C 1392.4 1170.68 1392.88 1171.21 1393.37 1171.73 C 1381.52 1172.16 1370.24 1171.62 1358.63 1171.89 C 1339.97 1171.53 1321.31 1171.48 1302.66 1171.73 C 1292.99 1170.72 1268.63 1171.33 1258.41 1171.75 L 1220.75 1171.62 C 1227 1147.13 1234.21 1122.96 1239.57 1098.17 C 1240.95 1091.82 1246.45 1064.88 1248.85 1062.13 L 1249.66 1062.07 z"/>
<path transform="translate(0,0)" fill="rgb(27,27,62)" d="M 1249.66 1062.07 C 1258.87 1048.63 1263.18 1017.19 1275.19 1001.99 C 1286.25 987.989 1302.7 985.108 1319.34 982.612 C 1312.58 1000.8 1311.9 1042.52 1333.1 1046.95 C 1351.49 1050.8 1390.7 1049.03 1410.86 1049.01 L 1550.67 1048.96 C 1573.12 1048.93 1604.1 1047.94 1625.99 1049.06 L 1626.2 1061.12 C 1608.4 1062.33 1587.67 1061.87 1569.67 1061.84 L 1482.53 1061.56 C 1467.28 1061.5 1443.86 1060.77 1429.35 1062.12 C 1420.01 1068.83 1414.24 1075.8 1410.36 1086.92 C 1401.39 1112.59 1404.48 1154.98 1429.14 1171.12 L 1403.23 1172.16 L 1393.37 1171.73 C 1392.88 1171.21 1392.4 1170.68 1391.94 1170.14 C 1366.68 1141 1363.43 1088.38 1393.74 1062.03 C 1345.9 1061.58 1297.44 1062.88 1249.66 1062.07 z"/>
<path transform="translate(0,0)" fill="rgb(67,115,162)" d="M 1465.36 1002.5 C 1480.06 1002.48 1599.57 1000.75 1604.41 1004.49 C 1606.66 1015.83 1579.48 1012.27 1571.5 1012.23 C 1531.2 1012.34 1472.32 1013.26 1430.69 1011.46 C 1428.96 1011.38 1428.57 1009.26 1428.15 1007.9 C 1430.71 999.269 1456.71 1002.45 1465.36 1002.5 z"/>
<path transform="translate(0,0)" fill="rgb(15,17,43)" d="M 1249.08 826.114 L 1253.5 826.502 C 1251.49 831.85 1246.03 842.239 1247.39 847.904 C 1247.66 849.009 1251.04 851.464 1252.16 852.394 L 1252.11 860.42 C 1230.11 869.024 1168.75 898.341 1161.42 920.791 C 1149.49 957.34 1150.08 1007.11 1146.01 1045.79 C 1142 1086.89 1140.54 1129.18 1136.35 1169.91 C 1132.48 1181.16 1117.36 1232.35 1112.9 1240.41 C 1112.25 1240.63 1111 1241.14 1110.4 1241.2 C 1099.52 1239.79 1066.24 1238.87 1055.07 1239.17 L 1052.79 1238.26 C 1051.38 1232.16 1056.96 1181.19 1058.11 1171.73 L 1064.91 1104.59 C 1066.25 1091.25 1067.24 1075.4 1069.48 1062.52 C 1070.44 1058.6 1071.62 1037.57 1072.18 1031.96 L 1080.29 956.995 C 1081.18 952.402 1081.92 944.658 1082.54 939.792 C 1082.92 938.639 1084.08 930.595 1084.36 928.887 L 1086.64 916.81 C 1087.88 912.581 1089.14 908.358 1090.43 904.143 C 1092.27 899.089 1094.22 895.92 1096.82 891.266 C 1100.23 886.996 1102.66 884.461 1106.42 880.642 C 1130.43 862.222 1177.29 846.533 1206.76 837.759 C 1215.17 834.825 1225.99 832.117 1234.73 829.69 C 1239.39 828.385 1244.36 827.265 1249.08 826.114 z"/>
<path transform="translate(0,0)" fill="rgb(45,106,167)" d="M 1284.59 760.268 L 1285.13 761.836 C 1290.26 777.067 1288.92 794.492 1305.57 803.382 C 1322.34 812.334 1349.01 804.597 1362 806.8 C 1377.12 812.301 1398.48 811.247 1414.35 814.833 C 1417.74 815.598 1417.31 816.994 1417.48 819.799 C 1412.23 830.464 1403.91 857.039 1399.96 868.833 C 1365.02 864.788 1322.99 865.339 1287.46 862.292 C 1276.94 861.39 1262.01 861.659 1252.11 860.42 L 1252.16 852.394 C 1255.97 845.021 1262.04 826.552 1264.93 818.128 L 1284.59 760.268 z"/>
<path transform="translate(0,0)" fill="rgb(247,133,28)" d="M 1136.35 1169.91 C 1139.17 1186.55 1129.88 1253.4 1132.93 1260.82 C 1133.78 1271.47 1121.23 1279.02 1113.26 1284.4 C 1112.78 1274.5 1110.96 1264.35 1108.97 1254.66 C 1108.65 1248.71 1108.6 1246.83 1110.4 1241.2 C 1111 1241.14 1112.25 1240.63 1112.9 1240.41 C 1117.36 1232.35 1132.48 1181.16 1136.35 1169.91 z"/>
<path transform="translate(0,0)" fill="rgb(15,17,43)" d="M 1257.94 982.393 C 1270.8 981.01 1313.11 974.358 1323.02 977.196 L 1319.34 982.612 C 1302.7 985.108 1286.25 987.989 1275.19 1001.99 C 1263.18 1017.19 1258.87 1048.63 1249.66 1062.07 L 1248.85 1062.13 C 1248.52 1059.34 1252.05 1040.19 1252.72 1036.44 C 1255.98 1018.19 1257.26 1000.9 1257.94 982.393 z"/>
<path transform="translate(0,0)" fill="rgb(27,27,62)" d="M 429.634 1676.08 C 446.245 1676.06 464.33 1675.65 480.811 1676.04 C 479.004 1681.01 478.149 1684.04 479.158 1689.4 C 488.709 1699.52 494.035 1715.73 496.732 1729.07 C 483.018 1730.6 428.766 1731.83 418.366 1727.47 C 416.396 1722.52 424.119 1704.24 425.535 1696.34 C 426.031 1692.14 428.698 1681.05 429.634 1676.08 z"/>
<path transform="translate(0,0)" fill="rgb(244,157,150)" d="M 429.634 1676.08 C 446.245 1676.06 464.33 1675.65 480.811 1676.04 C 479.004 1681.01 478.149 1684.04 479.158 1689.4 C 468.593 1682.71 462.671 1680.89 449.318 1683.16 C 444.661 1683.95 428.04 1693.8 425.535 1696.34 C 426.031 1692.14 428.698 1681.05 429.634 1676.08 z"/>
<path transform="translate(0,0)" fill="rgb(247,248,250)" d="M 465.213 682.912 C 471.217 696.162 480.841 715.34 494.004 722.838 C 493.929 730.937 493.687 739.033 493.277 747.121 C 489.446 749.166 483.309 754.138 480.265 757.278 C 474.035 759.359 468.913 760.93 462.565 762.595 C 454.909 764.608 447.343 766.737 439.532 768.037 C 440.987 766.563 442.003 765.824 442.524 763.825 C 449.663 736.438 452.976 708.491 465.213 682.912 z"/>
<path transform="translate(0,0)" fill="rgb(47,0,0)" d="M 1915.52 0 L 2048 0 L 2048 153.896 L 1915.87 153.916 C 1916.74 102.91 1914.38 50.748 1915.52 0 z"/>
<path transform="translate(0,0)" fill="rgb(247,133,28)" d="M 1958.17 40.4155 L 1972.31 40.2301 C 1973.88 46.9956 1976.75 56.7718 1979.43 63.0678 C 1988.22 71.4001 1985.11 86.7191 1996.86 89.1957 C 1995.65 92.6934 1995.73 92.4479 1996.12 96.1524 C 1998.68 100.063 1997.48 99.1606 2002.44 101.286 C 1996.67 100.623 1993.15 101.433 1987.9 101.104 C 1984.82 101.007 1983.63 101.042 1980.56 100.325 C 1976.32 96.885 1975.73 91.2693 1974.29 85.7818 L 1955.03 85.5075 L 1950.68 100.838 L 1939.09 99.9488 C 1945.52 80.3903 1952.48 60.1363 1958.17 40.4155 z"/>
<path transform="translate(0,0)" fill="rgb(67,0,1)" d="M 1979.43 63.0678 C 1988.22 71.4001 1985.11 86.7191 1996.86 89.1957 C 1995.65 92.6934 1995.73 92.4479 1996.12 96.1524 C 1998.68 100.063 1997.48 99.1606 2002.44 101.286 C 1996.67 100.623 1993.15 101.433 1987.9 101.104 L 1989.53 100.248 C 1990.83 97.1588 1981 68.5897 1979.43 63.0678 z"/>
<path transform="translate(0,0)" fill="rgb(67,0,1)" d="M 1964.33 51.7012 C 1966.88 55.8135 1971.79 70.1459 1970.41 74.9271 L 1966.75 75.5842 C 1962.7 75.7982 1960.99 76.6262 1959.03 72.9577 C 1958.78 66.2254 1962.16 58.5589 1964.33 51.7012 z"/>
<path transform="translate(0,0)" fill="rgb(247,133,28)" d="M 1996.86 89.1957 C 2003.49 91.2278 2005.89 92.885 2012.19 90.3321 L 2013.32 88.6477 C 2010.42 81.1168 1990.5 75.343 1994.98 62.304 C 1998.71 51.4337 2019.54 49.1089 2022.99 59.5331 C 2021.84 62.8385 2022.84 61.5934 2019.93 63.4372 C 2014.96 63.5632 2011.59 62.2845 2007.38 62.4625 L 2006.13 64.4455 C 2011.66 73.0163 2027.07 79.3223 2025.55 90.5209 C 2024.35 99.3681 2009.06 101.143 2002.44 101.286 C 1997.48 99.1606 1998.68 100.063 1996.12 96.1524 C 1995.73 92.4479 1995.65 92.6934 1996.86 89.1957 z"/>
</svg>